<?xml version="1.0" standalone="no"?>
<!DOCTYPE svg PUBLIC "-//W3C//DTD SVG 20010904//EN"
 "http://www.w3.org/TR/2001/REC-SVG-20010904/DTD/svg10.dtd">
<svg version="1.0" xmlns="http://www.w3.org/2000/svg"
 width="815.000000pt" height="743.000000pt" viewBox="0 0 815.000000 743.000000"
 preserveAspectRatio="xMidYMid meet">

<g transform="translate(0.000000,743.000000) scale(0.100000,-0.100000)"
fill="#000000" stroke="none">
<path d="M3515 7374 c-788 -29 -1478 -79 -2235 -165 -519 -59 -582 -71 -709
-146 -59 -34 -153 -123 -206 -195 -98 -131 -118 -226 -189 -868 -95 -853 -137
-1575 -137 -2350 0 -504 9 -794 42 -1295 43 -670 136 -1509 185 -1685 25 -87
91 -203 154 -273 97 -106 252 -192 387 -216 146 -26 816 -100 1373 -153 229
-21 276 -22 1845 -26 1397 -3 1636 -1 1810 13 622 49 1472 143 1617 180 117
30 253 116 343 217 70 80 132 213 155 333 64 340 156 1296 190 1990 13 271 13
1560 0 1830 -29 584 -108 1453 -176 1925 -34 239 -76 333 -209 465 -96 96
-180 149 -285 179 -95 27 -851 113 -1405 160 -681 58 -1091 76 -1815 80 -355
2 -685 2 -735 0z m633 -111 c-5 -26 -38 -29 -38 -4 0 15 6 21 21 21 14 0 19
-5 17 -17z m-2058 -83 c0 -5 -2 -10 -4 -10 -3 0 -8 5 -11 10 -3 6 -1 10 4 10
6 0 11 -4 11 -10z m280 -95 c0 -8 -4 -15 -10 -15 -5 0 -10 7 -10 15 0 8 5 15
10 15 6 0 10 -7 10 -15z m1950 -35 c0 -13 -7 -20 -20 -20 -13 0 -20 7 -20 20
0 13 7 20 20 20 13 0 20 -7 20 -20z m-2376 -101 c-3 -5 -10 -7 -15 -3 -5 3 -7
10 -3 15 3 5 10 7 15 3 5 -3 7 -10 3 -15z m3106 -9 c0 -11 -7 -20 -15 -20 -8
0 -15 9 -15 20 0 11 7 20 15 20 8 0 15 -9 15 -20z m36 -41 c3 -6 2 -15 -2 -19
-12 -12 -38 5 -30 19 9 14 23 14 32 0z m2024 -29 c0 -13 -7 -20 -20 -20 -13 0
-20 7 -20 20 0 13 7 20 20 20 13 0 20 -7 20 -20z m-2780 -5 c0 -8 -4 -15 -10
-15 -5 0 -10 7 -10 15 0 8 5 15 10 15 6 0 10 -7 10 -15z m1740 -35 c0 -5 -5
-10 -11 -10 -5 0 -7 5 -4 10 3 6 8 10 11 10 2 0 4 -4 4 -10z m-4660 -65 c0 -8
-4 -15 -10 -15 -5 0 -10 7 -10 15 0 8 5 15 10 15 6 0 10 -7 10 -15z m5370 -10
c0 -8 -4 -15 -10 -15 -5 0 -10 7 -10 15 0 8 5 15 10 15 6 0 10 -7 10 -15z
m-6040 -16 c0 -5 -4 -9 -10 -9 -5 0 -10 7 -10 16 0 8 5 12 10 9 6 -3 10 -10
10 -16z m5188 -2 c2 -12 -3 -17 -17 -17 -15 0 -21 6 -21 21 0 25 33 22 38 -4z
m-3688 -8 c0 -25 -33 -22 -38 4 -2 12 3 17 17 17 15 0 21 -6 21 -21z m1980
-99 c0 -13 -7 -20 -20 -20 -13 0 -20 7 -20 20 0 13 7 20 20 20 13 0 20 -7 20
-20z m1660 -30 c0 -13 -7 -20 -20 -20 -13 0 -20 7 -20 20 0 13 7 20 20 20 13
0 20 -7 20 -20z m-2640 -20 c0 -11 -7 -20 -15 -20 -8 0 -15 9 -15 20 0 11 7
20 15 20 8 0 15 -9 15 -20z m-1550 -30 c0 -5 -4 -10 -10 -10 -5 0 -10 5 -10
10 0 6 5 10 10 10 6 0 10 -4 10 -10z m112 -22 c-9 -9 -12 -7 -12 12 0 19 3 21
12 12 9 -9 9 -15 0 -24z m4588 -48 c0 -5 -4 -10 -10 -10 -5 0 -10 5 -10 10 0
6 5 10 10 10 6 0 10 -4 10 -10z m-760 -110 c0 -11 -7 -20 -15 -20 -8 0 -15 9
-15 20 0 11 7 20 15 20 8 0 15 -9 15 -20z m2060 5 c0 -8 -4 -15 -10 -15 -5 0
-10 7 -10 15 0 8 5 15 10 15 6 0 10 -7 10 -15z m-6800 -30 c0 -8 -9 -15 -20
-15 -11 0 -20 7 -20 15 0 8 9 15 20 15 11 0 20 -7 20 -15z m-460 -10 c0 -8 -7
-15 -15 -15 -8 0 -15 7 -15 15 0 8 7 15 15 15 8 0 15 -7 15 -15z m620 0 c0 -8
-7 -15 -15 -15 -8 0 -15 7 -15 15 0 8 7 15 15 15 8 0 15 -7 15 -15z m6108 -87
c-6 -18 -28 -21 -28 -4 0 9 7 16 16 16 9 0 14 -5 12 -12z m-5300 -21 c2 -10
-3 -17 -12 -17 -10 0 -16 9 -16 21 0 24 23 21 28 -4z m3592 -2 c0 -8 -4 -15
-10 -15 -5 0 -10 7 -10 15 0 8 5 15 10 15 6 0 10 -7 10 -15z m-1860 -15 c0
-11 -7 -20 -15 -20 -15 0 -21 21 -8 33 12 13 23 7 23 -13z m-2552 -67 c17 -10
32 -21 32 -25 0 -5 11 -18 25 -30 14 -12 25 -26 25 -32 0 -6 -4 -5 -9 3 -12
18 -21 0 -14 -27 3 -15 13 -22 29 -22 18 0 24 -6 24 -22 l0 -23 20 25 c16 20
20 22 20 8 0 -24 25 -23 50 2 11 11 24 20 28 20 5 0 15 11 22 25 7 14 17 25
22 25 4 0 8 8 8 18 0 9 19 30 42 47 42 29 43 29 170 28 102 -1 131 -5 144 -17
8 -9 20 -16 25 -16 5 0 9 -6 9 -14 0 -8 13 -28 29 -45 16 -17 31 -38 35 -46 7
-20 32 -19 40 1 3 9 6 29 6 45 0 18 11 41 29 61 l29 33 274 0 273 1 38 -35
c33 -31 37 -40 37 -83 0 -31 4 -48 12 -48 20 0 98 90 98 112 0 18 2 19 17 7 9
-8 14 -9 10 -3 -4 6 2 19 12 28 15 13 42 16 147 17 71 0 137 -3 147 -6 20 -8
111 -125 97 -125 -6 0 -10 -4 -10 -9 0 -5 9 -7 20 -4 12 3 27 -4 43 -21 13
-14 29 -26 36 -26 6 0 11 -5 11 -11 0 -7 8 -18 18 -25 12 -9 18 -31 22 -86 l5
-73 221 -3 221 -2 6 101 c4 86 8 104 28 125 12 13 26 21 30 18 5 -3 6 2 3 10
-4 9 1 18 10 22 9 3 16 12 16 20 0 8 7 14 15 14 8 0 15 5 15 10 0 6 7 10 15
10 8 0 15 5 15 11 0 8 6 7 18 -2 15 -13 16 -12 3 4 -28 36 -1 42 195 45 l184
3 40 -41 c26 -27 46 -40 56 -36 8 3 13 10 10 14 -3 5 8 22 25 38 l30 29 269
-2 c174 -1 276 -6 289 -13 14 -7 27 -7 39 -1 10 5 112 11 228 12 274 2 274 2
274 -17 0 -8 -4 -13 -9 -9 -5 3 -12 1 -15 -4 -3 -5 3 -11 14 -14 11 -3 18 -1
14 4 -9 15 13 10 29 -6 8 -8 18 -11 22 -7 5 4 5 1 1 -6 -4 -7 -16 -10 -27 -7
-29 10 -14 -18 19 -33 17 -8 28 -9 30 -2 5 13 32 13 32 0 0 -5 -8 -14 -17 -19
-15 -9 -14 -10 10 -9 29 3 36 24 15 48 -7 8 -3 6 9 -4 12 -10 20 -23 17 -30
-2 -6 0 -30 5 -51 8 -37 9 -35 10 33 1 40 -3 71 -8 68 -5 -3 -11 2 -13 12 -4
13 5 26 28 41 32 22 36 22 286 18 256 -4 298 -10 298 -44 0 -6 5 -13 11 -15 6
-2 13 -28 16 -58 3 -30 6 -56 8 -58 6 -6 35 11 35 22 0 6 13 22 30 36 16 14
30 32 30 40 0 9 14 27 30 42 67 59 360 45 360 -17 0 -8 5 -15 10 -15 6 0 10
-8 10 -17 0 -20 28 -53 47 -53 7 0 13 -7 13 -15 0 -8 9 -15 20 -15 17 0 20 7
20 50 0 44 4 55 33 83 l32 32 118 0 117 0 30 -32 c17 -18 30 -38 30 -46 0 -7
9 -23 20 -35 11 -12 20 -24 20 -27 0 -3 9 -15 19 -27 22 -23 51 -18 51 8 0 10
3 14 6 11 9 -9 44 37 44 57 0 9 5 16 11 16 5 0 8 4 5 8 -3 5 8 22 24 37 28 27
36 29 134 33 94 4 108 2 138 -17 21 -13 27 -21 16 -21 -9 0 -19 -4 -22 -9 -4
-5 3 -7 14 -4 50 13 50 14 50 -477 0 -393 -2 -459 -15 -470 -8 -7 -13 -16 -10
-20 3 -4 -11 -15 -30 -24 -29 -14 -53 -16 -133 -11 -104 7 -142 19 -142 44 0
14 2 14 10 1 5 -8 12 -11 16 -7 4 4 2 13 -4 19 -7 7 -12 39 -13 73 l0 60 -15
-45 c-7 -25 -12 -51 -9 -57 2 -7 0 -13 -5 -13 -6 0 -11 26 -12 58 0 31 -2 62
-3 67 -2 6 -3 41 -4 78 l-1 68 -72 -3 -73 -3 -5 -137 -5 -138 -31 -31 -31 -31
-112 1 c-62 0 -120 5 -132 12 -15 8 -24 8 -32 0 -7 -7 -57 -11 -128 -11 l-118
0 -30 33 c-26 26 -31 40 -31 80 0 26 -2 47 -4 47 -2 0 -11 3 -20 6 -13 5 -16
-2 -16 -45 0 -37 -4 -53 -15 -57 -8 -4 -15 -10 -15 -15 0 -5 -8 -17 -19 -28
-28 -28 -205 -40 -251 -16 -23 12 -35 14 -43 6 -7 -7 -55 -11 -122 -11 -60 0
-147 -3 -192 -7 -70 -5 -83 -9 -83 -23 0 -10 9 -20 21 -23 12 -3 18 -10 14
-16 -3 -6 5 -15 19 -21 14 -5 26 -14 26 -19 0 -5 8 -12 18 -15 35 -12 55 -66
60 -163 l4 -93 45 0 c27 0 42 -4 38 -10 -4 -6 -11 -8 -16 -5 -5 4 -9 3 -9 -2
0 -4 -12 -9 -26 -9 -14 -1 -27 -4 -29 -5 -2 -2 -5 -59 -8 -127 -4 -108 -8
-127 -28 -157 -13 -19 -30 -35 -36 -35 -7 0 -13 -6 -13 -14 0 -8 -7 -16 -15
-20 -16 -6 -21 -46 -7 -46 14 0 52 -36 52 -49 0 -6 5 -11 12 -11 6 0 1 -9 -12
-20 -13 -11 -18 -20 -12 -20 7 0 12 -11 12 -25 0 -27 1 -28 24 -19 9 3 13 10
10 15 -3 5 0 9 5 9 7 0 11 -41 11 -115 0 -68 -4 -115 -10 -115 -5 0 -7 6 -4
14 5 14 -22 30 -36 21 -4 -3 -10 -16 -12 -30 -3 -13 -2 -23 1 -20 4 2 7 -5 7
-15 0 -11 -5 -16 -14 -12 -11 4 -13 0 -8 -15 7 -20 3 -21 -114 -22 -99 -1
-127 2 -153 16 -36 20 -48 33 -41 45 3 4 0 8 -5 8 -6 0 -11 9 -11 20 0 12 -10
25 -25 32 -14 6 -25 15 -25 20 0 4 -4 8 -10 8 -5 0 -10 -14 -10 -30 0 -27 -2
-30 -25 -24 -15 4 -25 2 -25 -5 0 -6 9 -11 20 -11 27 0 26 -4 -12 -42 l-32
-33 -134 -3 c-92 -3 -137 0 -147 8 -9 7 -26 9 -42 5 -24 -6 -25 -5 -12 12 11
14 7 13 -24 -5 -44 -25 -62 -29 -29 -6 39 27 24 34 -70 33 -70 0 -87 -3 -69
-10 13 -5 22 -11 20 -14 -8 -7 -49 7 -49 16 0 13 -278 11 -282 -1 -2 -6 -33
-15 -70 -21 -62 -10 -70 -9 -97 10 -16 12 -31 34 -34 51 -6 27 -9 30 -34 24
-16 -4 -31 -11 -34 -16 -3 -5 -11 -3 -17 4 -11 13 -12 18 -12 43 0 8 -4 15
-10 15 -5 0 -10 -13 -10 -30 0 -16 -7 -33 -15 -38 -16 -8 -11 -42 6 -42 5 0 9
-5 9 -11 0 -6 -6 -9 -14 -6 -8 3 -17 -1 -20 -9 -4 -10 -24 -14 -80 -14 -87 0
-106 5 -106 31 0 17 -8 19 -87 19 -47 0 -83 -3 -80 -6 3 -4 -4 -15 -17 -25
-20 -15 -41 -19 -114 -19 -58 0 -93 4 -98 11 -5 9 1 10 22 5 19 -4 24 -3 15 2
-10 8 -10 11 -1 17 23 14 -41 32 -85 24 -22 -5 -58 -8 -80 -9 -23 0 -46 -5
-51 -10 -6 -6 -37 -12 -70 -15 -32 -3 -67 -8 -76 -11 -10 -3 -25 3 -35 15 -11
14 -30 21 -51 21 -18 0 -43 5 -55 12 -20 10 -21 10 -8 -6 19 -23 2 -39 -35
-34 -22 2 -28 8 -27 23 1 11 0 15 -2 10 -3 -6 -22 -9 -43 -7 -28 2 -33 1 -22
-7 8 -6 13 -11 10 -12 -3 0 -14 -2 -25 -5 -11 -2 -27 -1 -35 2 -13 4 -13 6 0
14 10 7 -9 10 -59 10 -41 0 -72 3 -68 6 3 3 -3 14 -14 25 -11 11 -17 24 -14
28 2 5 -2 14 -10 21 -12 10 -15 9 -15 -4 0 -9 -4 -16 -9 -16 -14 0 -33 28 -26
40 4 6 -6 10 -24 10 -24 0 -31 -4 -31 -20 0 -13 -7 -20 -19 -20 -11 0 -23 -12
-31 -29 -11 -29 -34 -41 -77 -41 -16 0 -21 -4 -17 -15 5 -11 -2 -15 -27 -16
-152 -7 -188 -6 -184 1 3 5 -5 11 -17 13 l-23 4 23 8 c14 5 19 10 13 15 -6 3
-12 23 -13 43 -1 40 -20 49 -37 20 -8 -14 -10 -9 -11 25 0 35 3 42 20 42 11 0
20 4 20 9 0 5 3 17 7 27 5 14 2 16 -21 12 -24 -5 -26 -3 -25 26 1 17 -2 153
-6 301 l-8 270 20 -22 c11 -13 23 -23 27 -23 3 0 6 22 6 48 0 43 -3 50 -26 61
l-26 11 5 143 c2 78 8 152 12 164 5 17 2 23 -16 28 -14 5 -25 3 -27 -4 -2 -7
-35 -11 -93 -11 -70 0 -91 3 -95 15 -4 8 -12 15 -19 15 -14 0 -27 37 -15 45 4
3 10 14 13 26 5 18 2 20 -19 15 l-24 -6 0 295 0 295 -36 0 -35 0 1 -212 c2
-362 1 -376 -14 -355 -20 26 -26 21 -26 -23 0 -22 -5 -40 -11 -40 -5 0 -8 -4
-4 -9 3 -5 -3 -12 -12 -14 -14 -4 -13 -5 4 -6 12 0 24 5 26 12 3 7 6 5 6 -5 1
-10 -5 -18 -13 -18 -8 0 -16 -4 -18 -9 -1 -5 -51 -12 -109 -16 l-106 -7 -42
42 c-22 23 -41 49 -40 58 0 13 3 11 11 -5 16 -34 24 -28 26 20 2 33 0 38 -8
25 -16 -26 -30 -22 -30 7 0 18 -5 25 -20 25 -18 0 -20 -7 -20 -55 0 -42 -3
-55 -15 -55 -8 0 -15 -6 -15 -13 0 -29 -51 -42 -155 -41 -91 1 -105 4 -134 25
-18 13 -35 36 -38 51 -6 30 -24 36 -42 14 -7 -8 -21 -12 -32 -9 -12 4 -25 0
-30 -8 -13 -21 -11 -29 9 -29 15 -1 14 -2 -3 -12 -11 -6 -23 -15 -26 -20 -3
-5 -93 -9 -200 -10 -107 0 -199 -4 -204 -9 -6 -4 -20 -6 -30 -4 -11 2 -25 4
-31 4 -6 1 -27 18 -47 38 l-37 36 0 461 1 461 27 27 c26 25 36 28 122 31 186
8 372 -1 408 -20z m-600 -116 c2 -10 -3 -17 -12 -17 -18 0 -29 16 -21 31 9 14
29 6 33 -14z m642 -847 c0 -5 -4 -10 -10 -10 -5 0 -10 5 -10 10 0 6 5 10 10
10 6 0 10 -4 10 -10z m-655 -160 c0 -8 -8 -16 -17 -18 -13 -2 -18 3 -18 18 0
15 5 20 18 18 9 -2 17 -10 17 -18z m7209 -45 c-6 -16 -34 -21 -34 -7 0 13 11
22 26 22 8 0 11 -6 8 -15z m-6784 -29 c0 -2 -7 -7 -16 -10 -8 -3 -12 -2 -9 4
6 10 25 14 25 6z m27 -38 c-3 -8 -6 -5 -6 6 -1 11 2 17 5 13 3 -3 4 -12 1 -19z
m6483 12 c-8 -5 -26 -9 -40 -9 l-25 1 25 8 c14 4 32 8 40 9 13 1 13 0 0 -9z
m590 -11 c0 -25 -33 -22 -38 4 -2 12 3 17 17 17 15 0 21 -6 21 -21z m-640 -19
c0 -5 -5 -10 -11 -10 -5 0 -7 5 -4 10 3 6 8 10 11 10 2 0 4 -4 4 -10z m-30
-10 c0 -5 -4 -10 -10 -10 -5 0 -10 5 -10 10 0 6 5 10 10 10 6 0 10 -4 10 -10z
m-40 -30 c0 -5 -4 -10 -10 -10 -5 0 -10 5 -10 10 0 6 5 10 10 10 6 0 10 -4 10
-10z m-5593 -50 c6 -16 9 -30 6 -30 -10 0 -41 45 -36 52 9 15 19 8 30 -22z
m4481 -3 c-2 -9 -10 -12 -22 -8 -18 7 -18 8 0 25 18 19 29 10 22 -17z m616 -2
c6 -24 5 -28 -5 -17 -18 17 -39 15 -39 -3 0 -8 -4 -15 -10 -15 -18 0 -11 20
17 46 30 28 28 28 37 -11z m-6094 10 c0 -8 -4 -15 -10 -15 -5 0 -10 7 -10 15
0 8 5 15 10 15 6 0 10 -7 10 -15z m6506 -12 c-10 -10 -19 5 -10 18 6 11 8 11
12 0 2 -7 1 -15 -2 -18z m-6066 -8 c0 -8 -4 -15 -10 -15 -5 0 -10 7 -10 15 0
8 5 15 10 15 6 0 10 -7 10 -15z m530 -4 c0 -6 -4 -12 -8 -15 -5 -3 -9 1 -9 9
0 8 4 15 9 15 4 0 8 -4 8 -9z m340 -1 c0 -5 7 -10 16 -10 13 0 10 -6 -11 -26
-23 -21 -32 -24 -49 -16 -12 6 -15 11 -8 11 7 1 17 12 22 26 9 24 30 35 30 15z
m4120 -6 c0 -8 -4 -12 -10 -9 -5 3 -10 10 -10 16 0 5 5 9 10 9 6 0 10 -7 10
-16z m1040 0 c0 -8 -4 -12 -10 -9 -5 3 -10 10 -10 16 0 5 5 9 10 9 6 0 10 -7
10 -16z m-5410 2 c0 -3 -4 -8 -10 -11 -5 -3 -10 -1 -10 4 0 6 5 11 10 11 6 0
10 -2 10 -4z m-576 -21 c3 -8 1 -15 -3 -15 -5 0 -11 7 -15 15 -3 8 -1 15 3 15
5 0 11 -7 15 -15z m5296 0 c0 -9 -6 -12 -15 -9 -8 4 -15 10 -15 15 0 5 7 9 15
9 8 0 15 -7 15 -15z m240 11 c0 -11 -19 -15 -25 -6 -3 5 1 10 9 10 9 0 16 -2
16 -4z m418 -7 c-2 -6 -8 -10 -13 -10 -5 0 -11 4 -13 10 -2 6 4 11 13 11 9 0
15 -5 13 -11z m-38 -30 c0 -12 -258 -5 -270 7 -5 5 51 8 130 6 81 -2 140 -7
140 -13z m-5544 4 c-8 -8 -276 -7 -284 2 -3 3 61 5 143 5 82 0 145 -3 141 -7z
m44 -3 c0 -5 -4 -10 -10 -10 -5 0 -10 5 -10 10 0 6 5 10 10 10 6 0 10 -4 10
-10z m685 -1 c-7 -10 -143 -5 -153 6 -3 3 32 5 77 5 55 0 80 -3 76 -11z m4132
5 c-11 -12 -112 -15 -137 -5 -20 8 -7 10 59 10 46 1 82 -2 78 -5z m223 -4 c0
-9 -108 -5 -118 5 -3 3 22 5 56 5 34 0 62 -4 62 -10z m40 -10 c0 -11 5 -20 10
-20 6 0 10 -4 10 -10 0 -5 -6 -10 -12 -10 -14 0 -39 46 -30 55 11 11 22 4 22
-15z m-6380 -25 c0 -8 -4 -15 -9 -15 -5 0 -11 7 -15 15 -3 9 0 15 9 15 8 0 15
-7 15 -15z m1555 -35 c0 -7 -6 -15 -12 -17 -8 -3 -13 4 -13 17 0 13 5 20 13
18 6 -3 12 -11 12 -18z m5312 -22 c-3 -8 -6 -5 -6 6 -1 11 2 17 5 13 3 -3 4
-12 1 -19z m-467 -24 c0 -17 -22 -14 -28 4 -2 7 3 12 12 12 9 0 16 -7 16 -16z
m-5930 -19 c0 -8 -9 -15 -20 -15 -11 0 -20 7 -20 15 0 8 9 15 20 15 11 0 20
-7 20 -15z m7005 -13 c0 -18 -20 -15 -23 4 -3 10 1 15 10 12 7 -3 13 -10 13
-16z m-5605 -17 c0 -8 -7 -15 -15 -15 -8 0 -15 7 -15 15 0 8 7 15 15 15 8 0
15 -7 15 -15z m5840 -45 c0 -13 -7 -20 -20 -20 -19 0 -27 20 -13 33 13 14 33
6 33 -13z m-5765 -90 c-5 -8 -11 -8 -17 -2 -6 6 -7 16 -3 22 5 8 11 8 17 2 6
-6 7 -16 3 -22z m3785 -25 c0 -8 -4 -15 -10 -15 -5 0 -10 7 -10 15 0 8 5 15
10 15 6 0 10 -7 10 -15z m974 -80 c3 -9 0 -15 -9 -15 -8 0 -15 7 -15 15 0 8 4
15 9 15 5 0 11 -7 15 -15z m-1004 -15 c0 -11 -7 -20 -15 -20 -15 0 -21 21 -8
33 12 13 23 7 23 -13z m-5120 -50 c0 -13 -7 -20 -20 -20 -13 0 -20 7 -20 20 0
13 7 20 20 20 13 0 20 -7 20 -20z m5290 -21 c0 -25 -33 -22 -38 4 -2 12 3 17
17 17 15 0 21 -6 21 -21z m1470 -99 c0 -13 -7 -20 -20 -20 -13 0 -20 7 -20 20
0 13 7 20 20 20 13 0 20 -7 20 -20z m-6222 -23 c2 -10 -3 -17 -12 -17 -10 0
-16 9 -16 21 0 24 23 21 28 -4z m5292 -57 c0 -11 -7 -20 -15 -20 -15 0 -21 21
-8 33 12 13 23 7 23 -13z m-4740 -34 c-13 -13 -35 7 -25 24 5 8 11 8 21 -1 10
-8 12 -15 4 -23z m-510 -26 c0 -13 -7 -20 -20 -20 -13 0 -20 7 -20 20 0 13 7
20 20 20 13 0 20 -7 20 -20z m894 -43 c4 4 4 -1 0 -10 -3 -10 -7 -17 -8 -15
-1 2 -8 12 -16 23 -14 18 -13 19 1 8 9 -7 19 -10 23 -6z m486 -3 c0 -2 -7 -4
-15 -4 -8 0 -15 4 -15 10 0 5 7 7 15 4 8 -4 15 -8 15 -10z m3910 6 c0 -5 -4
-10 -10 -10 -5 0 -10 5 -10 10 0 6 5 10 10 10 6 0 10 -4 10 -10z m-2460 -20
c0 -5 -2 -10 -4 -10 -3 0 -8 5 -11 10 -3 6 -1 10 4 10 6 0 11 -4 11 -10z m747
-26 c-3 -3 -12 -4 -19 -1 -8 3 -5 6 6 6 11 1 17 -2 13 -5z m-1390 -10 c-3 -3
-12 -4 -19 -1 -8 3 -5 6 6 6 11 1 17 -2 13 -5z m-619 -21 c-15 -2 -42 -2 -60
0 -18 2 -6 4 27 4 33 0 48 -2 33 -4z m3272 -27 c0 -2 3 -11 6 -20 4 -12 0 -16
-15 -16 -14 0 -21 6 -21 20 0 11 7 20 15 20 8 0 15 -2 15 -4z m-460 -36 c0
-11 7 -20 15 -20 16 0 65 -46 65 -60 0 -6 7 -10 15 -10 8 0 15 -7 15 -15 0 -8
9 -15 20 -15 15 0 20 -7 20 -25 0 -16 6 -25 15 -25 13 0 15 -83 17 -667 3
-660 3 -668 23 -668 11 0 20 -7 20 -15 0 -8 -8 -14 -17 -14 -16 2 -18 -10 -18
-106 0 -101 1 -108 19 -103 10 3 22 0 25 -6 4 -6 16 -11 28 -11 11 0 22 -8 25
-20 3 -13 14 -20 28 -20 17 0 25 -7 27 -22 2 -18 10 -23 33 -23 24 0 31 -5 33
-23 3 -21 8 -23 50 -21 42 3 47 1 50 -19 2 -15 10 -22 27 -22 14 0 25 -7 28
-20 4 -17 14 -20 56 -20 48 0 51 -2 51 -25 0 -22 4 -25 36 -25 27 0 37 -5 41
-20 3 -13 14 -20 28 -20 14 0 25 -7 28 -20 4 -14 14 -20 35 -20 21 0 31 -6 35
-19 3 -14 11 -18 26 -14 17 4 21 1 21 -21 0 -25 2 -26 65 -26 63 0 65 -1 65
-25 0 -22 4 -25 35 -25 31 0 35 -3 35 -25 0 -22 4 -25 35 -25 28 0 35 -4 35
-20 0 -16 7 -20 35 -20 28 0 35 -4 35 -20 0 -16 7 -20 31 -20 41 0 33 -24 -9
-28 -27 -3 -32 0 -32 17 0 17 -6 21 -35 21 -24 0 -35 5 -35 15 0 10 -11 15
-35 15 -31 0 -35 3 -35 25 0 24 -3 25 -60 25 -57 0 -60 1 -60 25 0 24 -3 25
-55 25 -48 0 -55 2 -55 20 0 17 -7 20 -40 20 -33 0 -40 3 -40 19 0 17 -8 20
-47 23 -41 3 -48 6 -51 26 -3 20 -9 22 -68 22 -62 0 -64 1 -64 25 0 24 -3 25
-55 25 -55 0 -55 0 -55 31 0 29 -2 31 -26 25 -20 -5 -27 -3 -31 13 -4 16 -17
22 -64 27 -49 5 -59 10 -59 25 0 14 -7 19 -25 19 -14 0 -25 5 -25 10 0 6 -10
10 -22 10 l-23 0 0 -187 c0 -710 -5 -943 -20 -943 -8 0 -15 -9 -15 -20 0 -11
-7 -20 -15 -20 -8 0 -15 -7 -15 -16 0 -9 -9 -18 -20 -21 -11 -3 -20 -12 -20
-19 0 -18 -14 -18 -30 1 -10 13 -9 15 9 15 14 0 21 6 21 20 0 13 7 20 20 20
13 0 20 7 20 20 0 11 7 20 15 20 12 0 15 15 15 75 0 54 -4 75 -13 75 -7 0 -20
9 -30 20 -9 11 -24 20 -32 20 -8 0 -15 7 -15 15 0 14 -12 20 -33 16 -5 -1 -11
8 -14 19 -3 11 -12 20 -19 20 -18 0 -18 16 0 23 8 3 24 -7 37 -24 12 -16 30
-29 40 -29 11 0 19 -7 19 -15 0 -8 6 -15 14 -15 8 0 16 -4 18 -9 2 -5 9 -11
16 -13 12 -3 16 239 13 702 l-1 86 -66 17 c-37 10 -73 25 -81 33 -8 7 -32 17
-54 20 -21 4 -37 10 -34 14 3 4 -14 10 -36 14 -23 4 -51 13 -62 21 -12 8 -34
15 -49 15 -18 0 -28 5 -28 14 0 8 -12 16 -27 18 -39 4 -42 28 -4 28 20 0 31
-5 31 -14 0 -9 17 -16 45 -20 25 -4 45 -11 45 -15 0 -4 25 -14 55 -21 30 -7
55 -16 55 -20 0 -3 23 -12 50 -19 28 -7 50 -16 50 -20 0 -6 79 -31 100 -31 6
0 10 31 10 70 0 63 -2 70 -20 70 -18 0 -25 11 -21 34 1 5 -19 6 -45 2 -26 -3
-52 -2 -58 3 -6 5 -31 13 -56 19 -106 25 -136 34 -144 43 -6 5 -22 9 -37 9
-15 0 -34 6 -42 14 -8 8 -32 16 -53 18 -39 3 -39 3 -42 51 -3 42 -5 47 -28 47
-17 0 -24 6 -24 19 0 15 -10 20 -60 25 -33 4 -60 11 -60 16 0 24 -42 50 -80
50 -28 0 -40 4 -40 14 0 18 -22 26 -74 26 -23 0 -51 7 -62 15 -10 8 -27 15
-36 15 -10 0 -18 5 -18 10 0 6 -9 10 -20 10 -19 0 -20 -7 -21 -107 -1 -60 -2
-112 -4 -118 -1 -5 -3 -15 -3 -21 -2 -12 -96 16 -115 35 -6 6 -18 11 -27 11
-9 0 -20 4 -25 8 -6 5 -42 21 -82 36 -39 15 -74 34 -77 42 -3 8 -17 14 -33 13
-16 -1 -52 10 -80 25 -53 27 -53 27 -52 74 0 26 4 70 9 97 4 28 6 52 5 53 -7
8 -65 -10 -60 -18 3 -5 -1 -11 -7 -13 -8 -4 -7 -6 4 -6 12 -1 16 -8 14 -28 -2
-16 -4 -34 -5 -40 0 -7 -8 -13 -17 -13 -20 0 -47 -27 -39 -40 10 -17 -5 -33
-20 -20 -25 21 -45 -31 -31 -82 5 -17 13 -25 22 -21 9 3 14 -2 14 -16 0 -12 6
-21 13 -21 8 0 19 -11 25 -25 6 -14 16 -25 22 -25 5 0 10 -5 10 -10 0 -6 14
-24 30 -40 29 -29 38 -50 21 -50 -5 0 -19 16 -32 35 -13 19 -30 35 -36 35 -7
0 -13 5 -13 10 0 6 -7 10 -15 10 -8 0 -17 11 -21 25 -3 14 -10 22 -16 19 -5
-3 -12 3 -15 15 -3 11 -9 19 -13 16 -4 -3 -15 6 -24 20 -21 32 -35 32 -28 0 4
-23 1 -25 -29 -26 -19 -1 -40 -1 -46 0 -7 1 -13 -3 -13 -9 0 -5 -6 -10 -14
-10 -16 0 -29 27 -20 41 3 5 0 9 -5 9 -6 0 -12 -4 -12 -10 -1 -5 -2 -16 -3
-22 -1 -16 -36 -24 -36 -9 0 6 5 11 10 11 6 0 10 4 10 9 0 6 -9 9 -20 8 -11
-1 -20 -7 -20 -13 0 -7 -7 -14 -15 -18 -9 -3 -15 -18 -15 -35 0 -35 -27 -45
-100 -35 -47 6 -50 8 -50 35 0 19 5 29 14 29 8 0 18 5 22 12 5 7 3 8 -5 4 -7
-5 -21 0 -32 10 -21 19 -25 17 -159 -118 -21 -21 -43 -38 -50 -38 -8 0 -10 -3
-6 -7 8 -9 -54 -73 -71 -73 -7 0 -10 -7 -7 -15 4 -9 0 -15 -7 -15 -8 -1 -27
-19 -44 -40 -16 -21 -36 -39 -42 -40 -21 0 -15 16 12 36 14 10 25 24 25 31 0
7 4 13 10 13 5 0 34 25 62 56 29 31 79 82 110 114 32 31 54 60 51 64 -15 14
-13 54 3 67 14 11 18 11 21 2 3 -7 17 -13 31 -13 21 0 24 2 12 10 -13 9 -13
12 3 21 30 17 19 79 -14 79 -26 0 -24 16 4 24 18 5 19 8 7 15 -12 9 -12 11 3
17 10 4 16 13 13 20 -3 8 -1 14 4 14 6 0 10 5 10 10 0 6 -13 10 -28 10 -24 0
-28 4 -30 29 -2 21 3 31 15 34 10 3 -5 5 -34 6 -48 1 -86 19 -46 22 10 1 2 4
-17 8 -30 5 -35 10 -34 31 1 14 -3 28 -10 32 -6 5 -1 8 13 8 20 0 23 -4 19
-25 -5 -24 -4 -25 51 -25 l56 0 0 60 c-1 50 -4 63 -22 75 -12 9 -28 21 -35 28
-7 8 -25 21 -40 31 l-28 18 0 -41 0 -41 -40 0 -40 0 0 50 c0 34 5 52 15 58 15
8 11 42 -4 42 -4 0 -28 20 -53 45 -25 25 -50 45 -55 45 -5 0 -20 13 -33 30
-14 16 -29 29 -34 30 -5 0 -22 14 -38 30 -15 17 -33 30 -38 30 -6 0 -10 5 -10
10 0 6 -5 10 -10 10 -10 0 -47 30 -102 83 -16 15 -31 27 -33 27 -6 0 -40 28
-77 63 -16 15 -31 27 -34 27 -3 0 -19 14 -36 30 -16 17 -35 30 -43 30 -7 0
-15 7 -19 15 -3 8 -12 15 -21 15 -8 0 -15 7 -15 15 0 8 -4 15 -10 15 -5 0 -19
8 -29 18 -57 52 -70 62 -80 62 -6 0 -11 7 -11 15 0 8 -6 15 -14 15 -8 0 -16 7
-20 15 -3 8 -12 15 -21 15 -8 0 -15 5 -15 10 0 6 -8 14 -17 17 -10 4 -28 17
-40 30 -12 13 -26 23 -30 23 -4 1 -19 14 -33 30 -13 17 -30 30 -37 30 -7 0
-13 7 -13 15 0 8 -5 15 -10 15 -6 0 -24 14 -40 30 -26 26 -36 30 -85 30 -41 0
-55 4 -55 14 0 8 8 17 18 19 9 3 783 5 1720 6 1693 1 1702 1 1702 -19z m-4660
-40 c0 -13 -5 -18 -15 -14 -8 4 -15 12 -15 20 0 8 7 14 15 14 8 0 15 -9 15
-20z m1210 5 c0 -8 -7 -15 -15 -15 -8 0 -15 -5 -15 -11 0 -14 -25 -39 -39 -39
-6 0 -11 -7 -11 -15 0 -8 -9 -15 -20 -15 -11 0 -20 7 -20 15 0 8 7 15 15 15 8
0 15 7 15 15 0 8 7 15 15 15 8 0 15 5 15 10 0 6 7 10 15 10 8 0 15 7 15 15 0
8 7 15 15 15 8 0 15 -7 15 -15z m4234 -6 c-3 -5 -10 -7 -15 -3 -5 3 -7 10 -3
15 3 5 10 7 15 3 5 -3 7 -10 3 -15z m-4346 -111 c-7 -19 -38 -22 -38 -4 0 10
9 16 21 16 12 0 19 -5 17 -12z m4272 -28 c0 -11 -7 -20 -15 -20 -8 0 -15 9
-15 20 0 11 7 20 15 20 8 0 15 -9 15 -20z m-4302 -18 c2 -12 10 -22 18 -22 8
0 14 -4 14 -10 0 -5 9 -10 20 -10 11 0 20 -6 20 -14 0 -8 14 -17 31 -21 17 -4
33 -13 36 -21 3 -8 11 -14 18 -14 7 0 15 -7 19 -15 3 -8 15 -15 26 -15 11 0
20 -4 20 -10 0 -5 9 -10 20 -10 11 0 20 -7 20 -15 0 -8 -9 -15 -20 -15 -11 0
-20 5 -20 10 0 6 -7 10 -15 10 -9 0 -18 7 -21 15 -4 8 -15 15 -25 15 -10 0
-19 5 -19 10 0 6 -7 10 -15 10 -8 0 -15 5 -15 10 0 6 -7 10 -15 10 -7 0 -18 6
-22 13 -11 16 -49 37 -68 37 -13 0 -15 -46 -13 -387 l3 -386 60 -13 c33 -7 81
-13 108 -13 26 -1 47 -5 47 -9 0 -4 39 -13 88 -20 223 -29 267 -36 272 -43 3
-4 46 -9 95 -11 51 -2 90 -7 90 -13 0 -17 -109 -17 -196 1 -46 9 -110 18 -141
21 -32 3 -58 8 -58 11 0 4 -12 7 -27 8 -122 1 -164 5 -158 14 4 6 -13 10 -44
10 -27 0 -53 5 -56 10 -3 6 -24 10 -46 10 l-39 0 0 -250 0 -251 63 7 c34 3 66
10 71 15 6 5 47 9 92 9 46 0 85 4 88 9 3 5 36 12 73 15 38 3 91 8 118 11 28 2
75 10 105 16 76 16 210 23 210 11 0 -12 -93 -23 -131 -15 -22 4 -29 2 -29 -11
0 -13 -11 -16 -52 -17 -159 -5 -203 -9 -206 -18 -2 -6 -28 -11 -57 -11 -30 0
-57 -4 -60 -10 -3 -5 -39 -10 -79 -10 -53 0 -77 -4 -86 -15 -8 -10 -31 -15
-66 -15 l-54 0 0 -35 0 -35 54 0 c30 0 58 5 61 10 3 6 27 10 53 10 26 0 60 7
76 15 32 17 136 21 136 5 0 -5 -23 -10 -51 -10 -31 0 -48 -4 -44 -10 4 -6 -10
-10 -34 -10 -23 0 -41 -4 -41 -10 0 -5 -20 -10 -44 -10 -25 0 -48 -4 -51 -10
-3 -5 -31 -10 -60 -10 l-55 0 0 -555 0 -555 25 0 c32 0 32 -18 0 -30 -24 -9
-25 -13 -25 -95 0 -69 -3 -85 -15 -85 -13 0 -15 165 -15 1421 0 1347 1 1420
18 1417 9 -2 18 -13 20 -26z m332 -32 c0 -13 -7 -20 -20 -20 -19 0 -27 20 -13
33 13 14 33 6 33 -13z m4420 -95 c0 -8 -4 -15 -8 -15 -5 0 -9 7 -9 15 0 8 4
15 9 15 4 0 8 -7 8 -15z m130 -69 c0 -8 -5 -18 -11 -22 -14 -8 -33 11 -25 25
10 16 36 13 36 -3z m-4576 -11 c3 -8 15 -15 26 -15 11 0 20 -4 20 -10 0 -5 7
-10 15 -10 9 0 18 -7 21 -15 4 -8 14 -15 24 -15 10 0 20 -7 24 -15 3 -8 14
-15 25 -15 10 0 21 -7 25 -15 3 -8 15 -15 26 -15 11 0 20 -4 20 -10 0 -5 -11
-10 -25 -10 -14 0 -25 5 -25 10 0 6 -7 10 -15 10 -9 0 -18 7 -21 15 -4 8 -17
15 -30 15 -15 0 -24 6 -24 15 0 8 -9 15 -20 15 -11 0 -20 7 -20 15 0 8 -9 15
-19 15 -10 0 -21 7 -25 15 -3 8 -12 15 -21 15 -8 0 -15 5 -15 10 0 16 27 12
34 -5z m4253 -40 c0 -8 -4 -12 -9 -9 -5 3 -6 10 -3 15 9 13 12 11 12 -6z m433
-80 c0 -8 -7 -15 -15 -15 -8 0 -15 7 -15 15 0 8 7 15 15 15 8 0 15 -7 15 -15z
m-1007 -10 c7 -16 -8 -29 -23 -20 -15 9 -12 35 4 35 8 0 16 -7 19 -15z m287
-6 c0 -5 -4 -9 -10 -9 -5 0 -10 7 -10 16 0 8 5 12 10 9 6 -3 10 -10 10 -16z
m-5310 -28 c0 -11 -5 -23 -11 -27 -15 -9 -33 12 -26 30 9 23 37 20 37 -3z
m1620 -6 c0 -16 -35 -21 -44 -6 -8 12 4 21 26 21 10 0 18 -7 18 -15z m170 -5
c0 -5 9 -10 20 -10 11 0 20 -7 20 -15 0 -8 7 -15 15 -15 16 0 27 -8 66 -42 10
-10 24 -18 29 -18 6 0 10 -4 10 -10 0 -5 11 -12 25 -16 14 -3 25 -10 25 -15 0
-5 6 -9 13 -9 6 0 26 -11 42 -25 49 -40 73 -56 123 -82 l32 -17 0 -248 0 -248
-95 0 -95 0 0 120 c0 73 4 120 10 120 6 0 10 -42 10 -105 l0 -105 78 0 77 0
-2 147 c-1 82 -2 183 -3 226 0 65 -3 79 -17 84 -10 4 -25 14 -33 23 -8 8 -28
22 -45 30 -16 8 -33 16 -37 18 -5 2 -8 -62 -8 -142 0 -85 -4 -146 -9 -146 -12
0 -19 278 -7 290 11 11 -1 30 -20 30 -8 0 -14 4 -14 9 0 5 -16 16 -35 25 -19
9 -35 21 -35 26 0 6 -7 10 -15 10 -8 0 -15 5 -15 10 0 6 -9 10 -20 10 -11 0
-23 7 -26 15 -4 8 -12 15 -20 15 -8 0 -14 5 -14 10 0 6 -7 10 -15 10 -8 0 -15
5 -15 11 0 5 -4 7 -10 4 -5 -3 -10 3 -10 14 0 12 5 21 10 21 6 0 10 -4 10 -10z
m-120 -20 c0 -5 -12 -10 -26 -10 -14 0 -23 4 -19 10 3 6 15 10 26 10 10 0 19
-4 19 -10z m3660 -13 c0 -19 -10 -27 -26 -20 -21 8 -17 33 6 33 11 0 20 -6 20
-13z m-3617 -19 c15 -7 27 -16 27 -20 0 -5 9 -8 20 -8 11 0 20 -4 20 -9 0 -5
11 -12 25 -15 14 -4 25 -11 25 -16 0 -6 -11 -10 -25 -10 -16 0 -25 6 -25 15 0
8 -9 15 -20 15 -11 0 -20 5 -20 10 0 6 -9 10 -20 10 -11 0 -20 5 -20 10 0 6
-7 10 -15 10 -8 0 -15 5 -15 10 0 13 10 13 43 -2z m4127 -83 c0 -8 -4 -15 -10
-15 -5 0 -10 7 -10 15 0 8 5 15 10 15 6 0 10 -7 10 -15z m-3980 -5 c0 -5 -7
-10 -16 -10 -8 0 -12 5 -9 10 3 6 10 10 16 10 5 0 9 -4 9 -10z m60 -30 c13
-11 27 -20 32 -20 5 0 16 -7 24 -15 14 -13 13 -15 -10 -15 -14 0 -26 5 -26 10
0 6 -7 10 -15 10 -8 0 -15 5 -15 10 0 6 -11 10 -25 10 -26 0 -34 15 -12 23 20
9 23 8 47 -13z m-2632 -145 c-3 -3 -9 2 -12 12 -6 14 -5 15 5 6 7 -7 10 -15 7
-18z m112 -45 c0 -11 -7 -20 -15 -20 -8 0 -15 9 -15 20 0 11 7 20 15 20 8 0
15 -9 15 -20z m848 3 c-5 -26 -38 -29 -38 -4 0 15 6 21 21 21 14 0 19 -5 17
-17z m1892 -102 c0 -32 3 -79 6 -105 6 -43 5 -46 -16 -46 -18 0 -21 4 -16 23
3 12 6 59 6 105 0 48 4 82 10 82 6 0 10 -26 10 -59z m4520 29 c0 -11 -7 -20
-15 -20 -8 0 -15 9 -15 20 0 11 7 20 15 20 8 0 15 -9 15 -20z m-6480 -35 c0
-8 -4 -15 -10 -15 -5 0 -10 7 -10 15 0 8 5 15 10 15 6 0 10 -7 10 -15z m1780
-120 c0 -9 -9 -15 -21 -15 -18 0 -19 2 -9 15 7 8 16 15 21 15 5 0 9 -7 9 -15z
m403 -23 c-4 -15 -13 -22 -30 -22 -13 0 -22 4 -18 10 3 5 12 7 19 4 8 -3 16 4
19 17 4 13 8 21 11 18 3 -3 3 -15 -1 -27z m4132 10 c-3 -3 -11 0 -18 7 -9 10
-8 11 6 5 10 -3 15 -9 12 -12z m75 -27 c0 -8 -7 -15 -15 -15 -8 0 -15 7 -15
15 0 8 7 15 15 15 8 0 15 -7 15 -15z m-260 -47 c0 -16 -3 -19 -11 -11 -6 6 -8
16 -5 22 11 17 16 13 16 -11z m-7260 -38 c0 -13 -7 -20 -20 -20 -13 0 -20 7
-20 20 0 13 7 20 20 20 13 0 20 -7 20 -20z m6380 -6 c0 -8 -9 -14 -20 -14 -19
0 -27 19 -14 33 10 9 34 -4 34 -19z m-3474 -31 c-10 -10 -19 5 -10 18 6 11 8
11 12 0 2 -7 1 -15 -2 -18z m331 -79 c-3 -3 -12 -4 -19 -1 -8 3 -5 6 6 6 11 1
17 -2 13 -5z m-127 -12 c0 -10 -115 -30 -222 -39 -51 -4 -78 -2 -78 4 0 6 52
16 118 23 64 6 122 13 127 15 20 7 55 5 55 -3z m1030 -2 c0 -5 -5 -10 -11 -10
-5 0 -7 5 -4 10 3 6 8 10 11 10 2 0 4 -4 4 -10z m-870 -9 c0 -9 -99 -25 -107
-17 -2 2 19 9 49 14 29 5 54 10 56 11 1 0 2 -3 2 -8z m-130 -30 c0 -8 -55 -21
-92 -21 -31 0 -19 19 15 23 60 7 77 7 77 -2z m-130 -31 c-20 -13 -80 -13 -80
0 0 6 21 10 48 10 34 0 43 -3 32 -10z m4190 -5 c0 -8 -7 -15 -15 -15 -26 0
-18 20 13 29 1 1 2 -6 2 -14z m-4285 -15 c-3 -5 -29 -10 -56 -10 -31 0 -48 -4
-44 -10 4 -6 -17 -10 -54 -10 -48 0 -61 -3 -61 -15 0 -10 -10 -15 -30 -15 -55
0 -34 25 33 38 34 7 76 17 92 22 44 12 127 12 120 0z m4335 -50 c0 -13 -7 -20
-20 -20 -13 0 -20 7 -20 20 0 13 7 20 20 20 13 0 20 -7 20 -20z m-6890 -15 c0
-25 -23 -35 -35 -15 -10 16 2 40 20 40 9 0 15 -9 15 -25z m2270 11 c0 -16 -97
-27 -140 -15 -33 9 -11 17 55 22 28 2 58 4 68 5 9 1 17 -4 17 -12z m-147 -27
c7 0 3 -4 -8 -9 -27 -12 -92 -12 -100 -1 -5 10 58 20 83 14 8 -2 19 -3 25 -4z
m777 -8 c0 -23 -16 -36 -25 -21 -9 14 1 40 15 40 5 0 10 -9 10 -19z m-50 -56
c5 -57 -5 -85 -31 -85 -15 0 -10 17 6 24 11 4 13 16 8 53 -3 26 -7 50 -9 52
-1 2 -17 -7 -33 -19 -28 -19 -31 -26 -31 -77 0 -54 1 -55 25 -49 30 8 34 -10
5 -19 -11 -3 -20 -13 -20 -21 0 -8 -4 -14 -10 -14 -10 0 -13 24 -10 103 1 39
-2 47 -16 47 -16 0 -16 2 2 19 10 10 22 17 26 15 3 -2 12 2 20 9 16 16 39 26
53 23 6 -1 12 -29 15 -61z m140 50 c0 -5 -86 -65 -94 -65 -18 0 0 21 37 44 41
25 57 31 57 21z m680 -5 c0 -5 -4 -10 -10 -10 -5 0 -10 5 -10 10 0 6 5 10 10
10 6 0 10 -4 10 -10z m-147 -37 c-7 -2 -19 -2 -25 0 -7 3 -2 5 12 5 14 0 19
-2 13 -5z m-1076 -9 c-3 -3 -12 -4 -19 -1 -8 3 -5 6 6 6 11 1 17 -2 13 -5z
m553 -17 c0 -15 -69 -73 -82 -69 -4 1 -8 -5 -8 -13 0 -16 -16 -20 -24 -6 -3 5
7 17 22 26 15 10 31 24 35 32 4 7 15 13 22 13 8 0 15 7 15 15 0 8 5 15 10 15
6 0 10 -6 10 -13z m-115 -96 c3 -6 -3 -15 -14 -20 -25 -14 -41 -14 -41 0 0 5
5 7 10 4 6 -3 13 1 16 9 7 18 20 21 29 7z m1001 -6 c-3 -9 0 -15 10 -15 8 0
17 -7 20 -15 4 -8 12 -15 19 -15 7 0 19 -13 27 -30 18 -42 28 -37 28 14 0 48
1 50 43 60 l27 6 0 -66 c0 -58 -3 -67 -20 -71 -24 -6 -33 5 165 -197 66 -68
146 -151 178 -184 33 -34 63 -62 68 -62 5 0 9 -5 9 -11 0 -7 171 -182 380
-389 299 -297 385 -377 400 -373 14 4 20 0 20 -11 0 -9 -8 -16 -20 -16 -11 0
-20 -7 -20 -15 0 -13 -198 -15 -1725 -15 -1527 0 -1725 2 -1725 15 0 8 -9 15
-20 15 -11 0 -20 7 -20 15 0 8 -8 15 -19 15 -10 0 -21 9 -24 20 -3 11 -12 20
-21 20 -9 0 -16 5 -16 11 0 7 -7 17 -17 24 -9 7 -13 17 -9 23 11 19 26 14 26
-8 0 -11 3 -20 6 -20 17 0 57 31 124 98 41 41 108 104 149 141 83 74 166 154
368 354 77 75 142 137 145 137 12 0 158 154 158 167 0 7 7 13 16 13 9 0 54 38
99 85 76 77 105 99 105 77 0 -5 -18 -21 -40 -38 -22 -16 -40 -32 -40 -36 0 -4
-16 -24 -36 -45 -130 -140 -295 -312 -386 -406 -60 -60 -108 -114 -108 -118 0
-5 -7 -9 -15 -9 -8 0 -15 -4 -15 -9 0 -5 -26 -36 -57 -69 -62 -64 -365 -381
-372 -388 -2 -2 2 -15 9 -29 l13 -25 964 0 963 0 0 28 c0 15 -4 43 -9 62 -5
19 -12 60 -14 90 -3 30 -9 81 -13 113 -5 46 -4 57 8 57 18 0 49 -234 33 -252
-7 -8 -6 -9 2 -4 9 5 15 -6 20 -36 4 -24 6 -46 5 -50 -1 -5 311 -8 693 -8 382
0 695 3 695 7 0 4 -37 43 -82 88 -46 45 -114 117 -153 160 -38 44 -83 93 -100
110 -16 18 -41 46 -55 62 -14 17 -50 58 -80 90 -30 33 -74 82 -98 109 -77 87
-206 226 -229 247 -13 11 -23 27 -23 34 0 7 -6 13 -12 13 -7 0 -40 30 -73 67
-33 37 -77 84 -97 105 -21 21 -38 41 -38 45 0 4 -26 32 -57 64 -73 71 -173
179 -173 184 0 3 9 5 21 5 15 0 19 -5 15 -15z m-1256 -115 c0 -55 -3 -100 -7
-100 -5 0 -25 -16 -45 -35 -20 -19 -39 -35 -41 -35 -15 0 -127 -108 -127 -122
0 -14 -27 -38 -43 -38 -19 0 -24 30 -26 160 -2 106 -2 107 25 124 19 13 29 15
37 7 9 -9 6 -13 -11 -17 -21 -6 -22 -11 -22 -105 0 -55 4 -99 8 -99 5 0 17 9
27 20 10 11 24 20 32 20 7 0 13 7 13 15 0 8 7 15 15 15 8 0 15 5 15 10 0 6 6
10 14 10 8 0 16 7 20 15 3 8 11 15 18 15 7 0 19 9 26 20 7 11 21 20 32 20 18
0 20 7 20 80 0 80 0 80 -24 74 -28 -7 -46 13 -19 22 10 3 25 9 33 14 28 16 30
10 30 -90z m830 25 c0 -37 -4 -65 -10 -65 -5 0 -10 25 -10 55 l0 55 -160 0
c-100 0 -160 4 -160 10 0 6 63 10 170 10 l170 0 0 -65z m-3720 35 c0 -13 -7
-20 -20 -20 -13 0 -20 7 -20 20 0 13 7 20 20 20 13 0 20 -7 20 -20z m638 -8
c2 -7 -3 -12 -12 -12 -9 0 -16 7 -16 16 0 17 22 14 28 -4z m2505 -7 c-3 -8 -9
-15 -14 -15 -10 0 -12 24 -3 33 11 11 24 -3 17 -18z m825 3 c-3 -9 -27 -13
-73 -13 -46 0 -70 4 -72 13 -4 9 15 12 72 12 57 0 76 -3 73 -12z m-1154 -7 c3
-5 0 -11 -8 -14 -15 -6 -26 1 -26 15 0 11 27 10 34 -1z m-39 -20 c8 -15 -56
-44 -69 -31 -7 7 -4 12 12 16 12 4 22 10 22 15 0 12 27 12 35 0z m-70 -40 c3
-5 1 -13 -5 -16 -15 -9 -43 3 -35 15 8 13 32 13 40 1z m-1475 -27 c0 -8 -4
-12 -10 -9 -5 3 -10 10 -10 16 0 5 5 9 10 9 6 0 10 -7 10 -16z m527 1 c0 -8
-9 -15 -19 -15 -10 0 -18 7 -18 15 0 8 8 15 18 15 10 0 19 -7 19 -15z m1359
-6 c8 -14 -18 -31 -30 -19 -9 9 0 30 14 30 5 0 12 -5 16 -11z m354 -29 c0 -5
-12 -10 -26 -10 -17 0 -28 -6 -31 -20 -3 -11 -10 -20 -15 -20 -6 0 -7 7 -4 16
3 9 6 19 6 24 0 8 22 15 58 19 6 0 12 -3 12 -9z m43 -10 c3 -10 -1 -25 -9 -31
-8 -6 -17 -29 -20 -50 -4 -22 -10 -39 -15 -39 -12 0 -11 9 5 64 8 27 12 54 9
62 -3 8 1 14 10 14 8 0 17 -9 20 -20z m667 5 c0 -12 -18 -15 -101 -15 -92 0
-101 -2 -94 -17 3 -10 9 -30 12 -45 l6 -28 123 0 c68 0 124 4 124 9 0 4 -13
18 -30 31 -19 14 -30 32 -30 47 0 28 23 27 28 -2 2 -10 17 -30 32 -45 20 -20
27 -34 23 -49 -5 -20 -12 -21 -144 -21 l-139 0 0 29 c0 16 -4 31 -9 33 -8 2
-15 55 -12 81 1 4 48 7 106 7 87 0 105 -3 105 -15z m-2422 -32 c-2 -10 -10
-18 -18 -18 -8 0 -16 8 -18 18 -2 12 3 17 18 17 15 0 20 -5 18 -17z m2862 -24
c0 -5 -7 -9 -15 -9 -8 0 -15 7 -15 15 0 9 6 12 15 9 8 -4 15 -10 15 -15z
m-1240 -9 c0 -5 -4 -10 -10 -10 -5 0 -10 5 -10 10 0 6 5 10 10 10 6 0 10 -4
10 -10z m1270 -11 c0 -5 -7 -9 -15 -9 -15 0 -20 12 -9 23 8 8 24 -1 24 -14z
m2920 -5 c0 -8 -9 -14 -20 -14 -22 0 -28 26 -7 33 16 6 27 -1 27 -19z m-6670
-4 c0 -13 -7 -20 -20 -20 -13 0 -20 7 -20 20 0 13 7 20 20 20 13 0 20 -7 20
-20z m2907 -67 c-2 -16 -4 -5 -4 22 0 28 2 40 4 28 2 -13 2 -35 0 -50z m879
52 c4 -8 12 -15 20 -15 8 0 14 -7 14 -15 0 -8 9 -15 20 -15 11 0 20 -6 20 -13
0 -8 11 -20 25 -27 14 -7 25 -17 25 -22 0 -4 7 -8 15 -8 9 0 18 -7 21 -15 4
-8 13 -15 20 -15 8 0 17 -7 20 -15 4 -8 12 -15 20 -15 8 0 14 -7 14 -15 0 -8
7 -15 15 -15 8 0 15 -5 15 -10 0 -6 8 -14 18 -17 9 -4 31 -21 49 -40 17 -18
36 -33 42 -33 6 0 11 -4 11 -10 0 -5 7 -10 15 -10 8 0 15 -5 15 -10 0 -6 11
-15 25 -20 14 -5 25 -14 25 -20 0 -5 7 -10 15 -10 8 0 15 -7 15 -15 0 -8 7
-15 15 -15 8 0 15 -7 15 -15 0 -8 6 -15 14 -15 8 0 17 -7 20 -16 3 -8 10 -12
16 -9 6 3 13 -1 16 -9 3 -9 12 -16 20 -16 8 0 14 -9 14 -20 0 -11 -3 -20 -6
-20 -6 0 -52 40 -89 78 -12 12 -27 22 -34 22 -6 0 -11 4 -11 10 0 5 -19 21
-41 36 -23 14 -54 39 -70 55 -16 16 -33 29 -38 29 -5 0 -13 9 -16 20 -3 11
-15 20 -25 20 -10 0 -20 7 -24 15 -3 8 -12 15 -21 15 -8 0 -15 7 -15 15 0 8
-7 15 -15 15 -8 0 -15 7 -15 15 0 8 -9 15 -20 15 -11 0 -20 7 -20 15 0 8 -7
15 -15 15 -8 0 -19 9 -25 20 -6 11 -17 20 -26 20 -8 0 -17 7 -20 15 -4 8 -13
15 -20 15 -8 0 -17 7 -20 15 -4 8 -12 15 -20 15 -8 0 -14 6 -14 14 0 7 -9 16
-21 19 -12 3 -18 10 -14 16 9 16 25 13 31 -4z m-1316 -10 c0 -9 7 -18 15 -21
8 -4 15 -14 14 -23 0 -10 -2 -11 -6 -3 -2 6 -13 12 -22 12 -24 0 -30 8 -24 31
6 23 23 26 23 4z m-985 -15 c0 -7 -6 -15 -12 -17 -8 -3 -13 4 -13 17 0 13 5
20 13 18 6 -3 12 -11 12 -18z m1070 -12 c9 -9 -23 -30 -35 -23 -18 11 -11 35
10 32 11 -2 22 -6 25 -9z m715 -28 c0 -5 -4 -10 -10 -10 -5 0 -10 5 -10 10 0
6 5 10 10 10 6 0 10 -4 10 -10z m-642 -37 c16 -36 15 -70 -3 -77 -8 -3 -15
-12 -15 -21 0 -13 -11 -15 -67 -13 l-68 3 3 45 c4 76 17 90 81 90 51 0 57 -3
69 -27z m677 -19 c8 -20 15 -38 15 -40 0 -6 -52 -4 -77 2 -27 7 -31 36 -5 32
12 -2 17 3 16 20 -1 37 33 28 51 -14z m-1585 -43 c0 -12 -29 -23 -41 -15 -5 3
-7 10 -4 15 8 12 45 12 45 0z m1484 3 c38 -14 10 -24 -69 -24 -47 0 -85 -4
-85 -8 0 -5 -34 -7 -77 -4 -69 4 -76 3 -70 -12 4 -10 7 -33 7 -52 l0 -34 135
0 c127 0 135 -1 135 -19 0 -11 5 -23 10 -26 6 -3 10 -17 10 -30 0 -13 5 -25
10 -27 6 -2 11 -21 13 -43 1 -22 8 -45 16 -51 9 -7 10 -13 4 -17 -12 -8 -45
37 -42 56 1 6 -3 26 -10 42 -7 17 -15 42 -18 58 l-5 27 -190 0 c-147 0 -189 3
-186 13 3 7 25 13 53 15 l48 3 -6 44 c-10 71 -5 76 69 69 55 -6 64 -5 64 10 0
13 13 16 84 16 46 0 91 -3 100 -6z m3376 -29 c0 -8 -4 -15 -10 -15 -5 0 -10 7
-10 15 0 8 5 15 10 15 6 0 10 -7 10 -15z m-4900 -10 c0 -9 -12 -20 -27 -26
-15 -5 -33 -19 -41 -30 -7 -10 -17 -17 -22 -14 -4 3 -10 -2 -14 -10 -8 -22
-26 -18 -26 5 0 14 7 20 21 20 12 0 23 8 26 20 3 11 13 20 23 20 10 0 20 7 24
15 7 20 36 19 36 0z m741 0 c-1 -15 -24 -12 -29 3 -3 9 2 13 12 10 10 -1 17
-7 17 -13z m2149 -25 c0 -11 -7 -20 -15 -20 -8 0 -15 9 -15 20 0 11 7 20 15
20 8 0 15 -9 15 -20z m250 -70 c0 -11 -4 -20 -10 -20 -5 0 -10 9 -10 20 0 11
5 20 10 20 6 0 10 -9 10 -20z m-4010 -15 c0 -8 -7 -15 -15 -15 -8 0 -15 7 -15
15 0 8 7 15 15 15 8 0 15 -7 15 -15z m730 1 c0 -21 -20 -30 -33 -17 -9 9 -8
14 3 21 21 14 30 12 30 -4z m1055 -6 c0 -9 -8 -14 -22 -13 -13 2 -23 -4 -26
-15 -3 -10 -5 -7 -6 10 0 14 5 29 12 31 21 9 42 2 42 -13z m181 9 c10 -16 -12
-26 -46 -21 -29 4 -37 12 -23 25 11 11 61 8 69 -4z m2854 -35 c0 -8 -6 -14
-14 -14 -12 0 -14 10 -7 38 3 10 21 -11 21 -24z m360 5 c0 -5 -20 -9 -45 -9
-40 0 -54 7 -41 21 9 8 86 -3 86 -12z m-4492 -11 c-6 -18 -28 -21 -28 -4 0 9
7 16 16 16 9 0 14 -5 12 -12z m-40 -26 c2 -7 -6 -12 -17 -12 -21 0 -27 11 -14
24 9 9 26 2 31 -12z m-38 -37 c-12 -15 -30 -12 -30 6 0 5 10 9 21 9 18 0 19
-2 9 -15z m5240 -5 c0 -11 -7 -20 -15 -20 -8 0 -15 9 -15 20 0 11 7 20 15 20
8 0 15 -9 15 -20z m-6850 0 c0 -5 -4 -10 -10 -10 -5 0 -10 5 -10 10 0 6 5 10
10 10 6 0 10 -4 10 -10z m890 -21 c0 -5 -4 -9 -10 -9 -5 0 -10 7 -10 16 0 8 5
12 10 9 6 -3 10 -10 10 -16z m690 2 c0 -14 -18 -23 -30 -16 -6 4 -8 11 -5 16
8 12 35 12 35 0z m-500 -21 c0 -11 -7 -20 -15 -20 -8 0 -15 9 -15 20 0 11 7
20 15 20 8 0 15 -9 15 -20z m460 -15 c0 -8 -6 -15 -14 -15 -17 0 -28 14 -19
24 12 12 33 6 33 -9z m-40 -30 c0 -8 -7 -15 -15 -15 -8 0 -15 7 -15 15 0 8 7
15 15 15 8 0 15 -7 15 -15z m1537 -21 c8 -21 -13 -42 -28 -27 -13 13 -5 43 11
43 6 0 13 -7 17 -16z m-1577 -9 c0 -8 -6 -15 -14 -15 -7 0 -16 -9 -19 -20 -3
-11 -12 -20 -21 -20 -9 0 -16 8 -16 20 0 13 7 20 19 20 10 0 21 7 25 15 3 8
10 15 16 15 5 0 10 -7 10 -15z m4660 0 c0 -8 -7 -15 -15 -15 -8 0 -15 7 -15
15 0 8 7 15 15 15 8 0 15 -7 15 -15z m-1480 -15 c6 -11 17 -20 25 -20 8 0 15
-7 15 -15 0 -8 9 -15 20 -15 11 0 20 -4 20 -10 0 -5 7 -10 15 -10 8 0 15 -7
15 -15 0 -8 -7 -15 -15 -15 -8 0 -15 5 -15 10 0 6 -7 10 -15 10 -9 0 -18 7
-21 15 -4 8 -11 15 -18 15 -14 0 -56 44 -56 59 0 18 18 13 30 -9z m-5020 -10
c0 -13 -7 -20 -20 -20 -19 0 -27 20 -13 33 13 14 33 6 33 -13z m3327 -16 c-3
-3 -12 -4 -19 -1 -8 3 -5 6 6 6 11 1 17 -2 13 -5z m-1565 -36 c-9 -9 -15 -9
-24 0 -10 10 -10 15 2 22 20 12 38 -6 22 -22z m-32 -22 c0 -18 -30 -30 -43
-17 -5 5 -6 14 -3 20 10 16 46 13 46 -3z m1870 5 c0 -5 3 -16 6 -25 4 -10 1
-16 -9 -16 -15 0 -30 34 -19 44 8 9 22 7 22 -3z m-1920 -46 c0 -8 -9 -15 -20
-15 -11 0 -20 -7 -20 -15 0 -8 -9 -15 -20 -15 -11 0 -20 5 -20 11 0 6 9 13 20
16 11 3 20 12 20 19 0 8 9 14 20 14 11 0 20 -7 20 -15z m1295 -5 c-3 -5 -10
-10 -16 -10 -5 0 -9 5 -9 10 0 6 7 10 16 10 8 0 12 -4 9 -10z m-2507 -33 c2
-10 -3 -17 -12 -17 -10 0 -16 9 -16 21 0 24 23 21 28 -4z m762 -17 c0 -11 -7
-20 -15 -20 -15 0 -21 21 -8 33 12 13 23 7 23 -13z m54 -55 c3 -9 0 -15 -9
-15 -8 0 -15 7 -15 15 0 8 4 15 9 15 5 0 11 -7 15 -15z m5526 -5 c0 -11 -6
-20 -13 -20 -19 0 -27 10 -20 26 8 21 33 17 33 -6z m-2622 -51 c-2 -6 -8 -10
-13 -10 -5 0 -11 4 -13 10 -2 6 4 11 13 11 9 0 15 -5 13 -11z m2172 -19 c0
-13 -7 -20 -20 -20 -13 0 -20 7 -20 20 0 13 7 20 20 20 13 0 20 -7 20 -20z
m293 6 c7 -16 -1 -26 -20 -26 -7 0 -13 9 -13 20 0 23 25 27 33 6z m-4003 -86
c-8 -5 -17 -7 -19 -4 -3 3 1 9 9 14 8 5 17 7 19 4 3 -3 -1 -9 -9 -14z m1720
-26 c0 -8 -5 -12 -10 -9 -6 4 -8 11 -5 16 9 14 15 11 15 -7z m-4390 -55 c0
-14 -5 -19 -17 -17 -26 5 -29 38 -4 38 15 0 21 -6 21 -21z m60 -53 c0 -17 -27
-29 -35 -16 -4 6 -3 15 0 20 9 15 35 12 35 -4z m5150 -66 c0 -5 -4 -10 -9 -10
-6 0 -13 5 -16 10 -3 6 1 10 9 10 9 0 16 -4 16 -10z m710 -25 c0 -8 -9 -15
-20 -15 -11 0 -20 7 -20 15 0 8 9 15 20 15 11 0 20 -7 20 -15z m-5760 -75 c0
-73 -2 -80 -20 -80 -18 0 -20 7 -20 61 0 37 -4 58 -10 54 -5 -3 -10 3 -10 14
0 20 12 29 43 30 15 1 17 -9 17 -79z m160 23 c0 -97 -4 -103 -66 -103 -40 0
-54 4 -54 14 0 10 14 16 43 18 60 4 58 31 -3 38 -45 5 -45 5 -48 48 l-3 42 65
0 66 0 0 -57z m160 33 c7 -14 9 -32 5 -43 -4 -10 -7 -35 -6 -55 l3 -38 -61 0
c-34 0 -60 3 -59 8 0 4 -2 15 -7 25 -4 11 -3 23 3 29 7 7 7 16 -1 29 -8 13 -8
24 1 43 10 23 18 26 60 26 41 0 51 -4 62 -24z m160 -16 c0 -27 -5 -43 -15 -46
-8 -4 -15 -13 -15 -21 0 -18 -32 -13 -38 5 -2 7 5 16 17 19 12 3 21 13 21 24
0 16 -8 19 -44 19 -45 0 -63 11 -51 30 3 6 33 10 66 10 l59 0 0 -40z m2480
-10 c0 -11 -6 -20 -13 -20 -19 0 -27 10 -20 26 8 21 33 17 33 -6z m3615 0 c0
-8 -8 -16 -17 -18 -13 -2 -18 3 -18 18 0 15 5 20 18 18 9 -2 17 -10 17 -18z
m-4379 -47 c-10 -10 -19 5 -10 18 6 11 8 11 12 0 2 -7 1 -15 -2 -18z m-1778
-40 c-5 -26 -38 -29 -38 -4 0 15 6 21 21 21 14 0 19 -5 17 -17z m3772 -133 c0
-13 -7 -20 -20 -20 -13 0 -20 7 -20 20 0 13 7 20 20 20 13 0 20 -7 20 -20z
m-3250 -25 c0 -8 -4 -15 -10 -15 -5 0 -10 7 -10 15 0 8 5 15 10 15 6 0 10 -7
10 -15z m4890 -1 c0 -17 -22 -14 -28 4 -2 7 3 12 12 12 9 0 16 -7 16 -16z
m-1005 -204 c0 -8 -8 -16 -17 -18 -13 -2 -18 3 -18 18 0 15 5 20 18 18 9 -2
17 -10 17 -18z"/>
<path d="M4735 6130 l-130 -6 150 -2 c100 -1 145 2 135 8 -8 5 -17 9 -20 8 -3
-1 -63 -5 -135 -8z"/>
<path d="M743 6123 c31 -2 83 -2 115 0 31 2 5 3 -58 3 -63 0 -89 -1 -57 -3z"/>
<path d="M1483 6123 c20 -2 54 -2 75 0 20 2 3 4 -38 4 -41 0 -58 -2 -37 -4z"/>
<path d="M2058 6123 c6 -2 18 -2 25 0 6 3 1 5 -13 5 -14 0 -19 -2 -12 -5z"/>
<path d="M2143 6123 c9 -2 25 -2 35 0 9 3 1 5 -18 5 -19 0 -27 -2 -17 -5z"/>
<path d="M2788 6123 c7 -3 16 -2 19 1 4 3 -2 6 -13 5 -11 0 -14 -3 -6 -6z"/>
<path d="M5188 6123 c7 -3 16 -2 19 1 4 3 -2 6 -13 5 -11 0 -14 -3 -6 -6z"/>
<path d="M5233 6123 c9 -2 23 -2 30 0 6 3 -1 5 -18 5 -16 0 -22 -2 -12 -5z"/>
<path d="M4306 6088 c-9 -36 -7 -48 9 -48 10 0 15 11 15 35 0 39 -14 47 -24
13z"/>
<path d="M7684 6074 c-2 -42 1 -42 14 -5 8 22 7 31 -1 34 -8 3 -12 -8 -13 -29z"/>
<path d="M2630 6081 c0 -6 4 -13 10 -16 6 -3 7 1 4 9 -7 18 -14 21 -14 7z"/>
<path d="M580 5640 l0 -430 212 2 213 3 5 30 c4 24 11 31 33 33 21 3 27 9 27
28 0 19 5 24 24 24 24 0 24 2 31 116 4 63 5 145 1 182 -3 37 -6 124 -6 195 l0
127 -30 0 c-27 0 -30 3 -30 30 0 27 -3 30 -30 30 -27 0 -30 3 -30 30 l0 30
-210 0 -210 0 0 -430z m347 250 c3 -11 12 -20 19 -20 21 0 21 -462 0 -479 -9
-8 -47 -11 -107 -9 l-94 3 -3 250 c-1 137 0 255 3 262 3 9 30 13 91 13 77 0
86 -2 91 -20z"/>
<path d="M830 5640 c0 -144 2 -170 15 -170 12 0 15 19 15 109 0 59 3 136 6
170 7 58 6 61 -15 61 -21 0 -21 -3 -21 -170z"/>
<path d="M1418 6038 c-2 -28 -8 -34 -30 -36 -22 -3 -28 -9 -28 -28 0 -19 -5
-24 -24 -24 -19 0 -25 -6 -28 -27 -2 -22 -9 -29 -29 -31 -25 -3 -26 -6 -32
-85 -9 -106 -9 -288 0 -460 l6 -137 79 0 78 0 1 63 c1 34 2 67 4 72 1 6 3 16
3 23 2 9 31 12 112 12 l110 0 0 -85 0 -85 85 0 85 0 0 340 0 340 -30 0 c-25 0
-30 4 -30 25 0 20 -6 27 -30 32 -24 4 -30 10 -30 33 0 21 -5 26 -22 26 -19 -1
-24 5 -26 32 l-3 32 -109 0 -109 0 -3 -32z m172 -193 c0 -20 5 -25 25 -25 l25
0 0 -135 0 -136 -112 3 -113 3 0 130 c0 126 1 130 22 133 13 2 24 13 27 28 6
22 11 24 66 24 57 0 60 -1 60 -25z"/>
<path d="M1500 5700 c0 -36 4 -52 15 -57 21 -8 23 -5 31 55 6 51 6 52 -20 52
-25 0 -26 -3 -26 -50z"/>
<path d="M1920 5990 l0 -79 78 -3 77 -3 3 -347 2 -348 85 0 85 0 0 350 0 350
75 0 75 0 0 80 0 80 -240 0 -240 0 0 -80z"/>
<path d="M2690 6035 c0 -31 -3 -35 -25 -35 -20 0 -25 -5 -25 -25 0 -21 -5 -25
-30 -25 -27 0 -30 -3 -30 -30 0 -27 -3 -30 -30 -30 l-30 0 0 -340 0 -341 82 3
82 3 1 35 c0 19 2 57 3 83 l2 48 113 -3 112 -3 3 -83 3 -83 82 3 82 3 3 281
c1 154 -1 305 -5 334 -7 47 -12 55 -33 60 -16 4 -26 14 -28 27 -2 14 -12 23
-25 25 -16 2 -23 11 -25 31 -3 21 -9 27 -27 27 -19 0 -24 6 -27 33 l-3 32
-112 3 -113 3 0 -36z m172 -187 c2 -14 11 -24 24 -26 19 -3 22 -11 26 -80 3
-42 3 -103 0 -134 l-4 -58 -109 0 -109 0 0 135 0 135 25 0 c20 0 25 5 25 25 0
24 3 25 59 25 54 0 60 -2 63 -22z"/>
<path d="M2787 5753 c-4 -3 -7 -30 -7 -60 0 -45 3 -53 19 -53 16 0 20 9 23 55
2 39 -1 56 -10 60 -17 6 -17 6 -25 -2z"/>
<path d="M3848 6043 c-2 -22 -9 -29 -30 -31 -21 -3 -27 -9 -30 -30 -2 -21 -8
-27 -28 -27 l-25 0 -3 -143 -3 -142 26 0 c21 0 25 -5 25 -30 0 -25 4 -30 25
-30 20 0 25 -5 25 -25 l0 -25 130 0 c148 0 150 -1 150 -87 0 -95 1 -94 -109
-91 l-96 3 -3 28 c-3 27 -4 27 -83 27 l-79 0 0 -60 c0 -56 1 -60 24 -60 18 0
25 -7 30 -30 4 -24 11 -30 31 -30 20 0 25 -5 25 -25 l0 -26 157 3 157 3 6 25
c4 16 14 26 28 28 16 2 22 10 22 28 0 20 5 24 30 24 l30 0 0 145 0 145 -25 0
c-20 0 -25 5 -25 24 0 18 -7 25 -30 30 -24 4 -30 11 -30 30 l0 25 -132 3 -133
3 -3 72 c-4 108 0 113 108 113 l90 0 0 -35 0 -35 85 0 85 0 0 59 c0 58 -1 60
-27 63 -20 2 -29 9 -31 25 -2 13 -11 23 -25 25 -13 2 -23 12 -27 28 l-6 25
-151 3 -152 3 -3 -28z"/>
<path d="M4235 6060 c-3 -5 -1 -10 4 -10 6 0 11 5 11 10 0 6 -2 10 -4 10 -3 0
-8 -4 -11 -10z"/>
<path d="M4380 5990 l0 -79 73 -3 72 -3 5 -345 5 -345 82 -3 83 -3 2 348 3
348 78 3 77 3 0 79 0 80 -240 0 -240 0 0 -80z"/>
<path d="M4980 5640 l0 -431 83 3 82 3 3 153 3 152 24 0 c24 0 25 -3 25 -56 0
-55 0 -55 27 -52 24 3 28 -1 33 -27 4 -24 11 -31 33 -33 22 -3 27 -8 27 -32 0
-24 5 -29 28 -32 23 -3 27 -8 30 -40 l3 -38 75 0 74 0 0 80 0 80 -35 0 c-32 0
-35 2 -35 29 0 26 -4 30 -32 33 -32 3 -33 4 -36 54 -3 45 0 52 18 57 11 3 20
12 20 21 0 9 8 16 20 16 15 0 20 7 20 24 0 19 6 25 28 28 l27 3 3 163 2 162
-30 0 c-25 0 -30 4 -30 24 0 19 -6 25 -27 28 -22 2 -29 9 -31 31 l-3 27 -215
0 -214 0 0 -430z m368 168 l-3 -93 -96 -3 c-93 -3 -97 -2 -103 20 -8 31 -8
153 1 161 3 4 51 7 105 7 l99 0 -3 -92z"/>
<path d="M5650 5640 l0 -430 235 0 235 0 0 85 0 85 -150 0 -150 0 0 85 0 85
110 0 110 0 0 85 0 85 -110 0 -111 0 3 93 3 92 145 1 145 1 3 82 3 81 -236 0
-235 0 0 -430z"/>
<path d="M6410 6035 c0 -31 -3 -35 -25 -35 -20 0 -25 -5 -25 -25 0 -20 -5 -25
-24 -25 -19 0 -25 -6 -28 -27 -2 -22 -9 -29 -33 -33 l-30 -5 0 -335 0 -335 82
-3 82 -3 3 83 3 83 113 3 112 3 0 -86 0 -85 85 0 85 0 0 335 0 335 -29 0 c-26
0 -30 4 -33 33 -2 27 -8 33 -30 35 -22 3 -28 9 -28 28 0 19 -5 24 -24 24 -21
0 -25 6 -28 33 l-3 32 -112 3 -113 3 0 -36z m178 -192 c2 -14 11 -23 25 -25
21 -3 22 -8 25 -136 l3 -133 -113 3 -113 3 0 130 0 130 28 3 c21 3 27 9 27 28
0 24 2 25 58 22 50 -3 57 -6 60 -25z"/>
<path d="M6514 5758 c-6 -12 -8 -44 -6 -70 3 -39 8 -48 23 -48 16 0 19 8 19
53 0 29 -6 61 -13 71 -12 17 -14 16 -23 -6z"/>
<path d="M6930 5640 l0 -430 85 0 85 0 0 245 0 245 30 0 c28 0 30 -2 30 -39 0
-36 3 -40 28 -43 22 -2 28 -8 30 -35 3 -33 4 -33 58 -33 53 0 54 0 54 29 0 26
4 30 33 33 30 3 32 6 35 46 3 37 6 42 28 42 l24 0 0 -245 0 -245 85 0 85 0 0
430 0 430 -80 0 -80 0 0 -34 c0 -30 -3 -35 -27 -38 -20 -2 -29 -9 -31 -25 -2
-12 -12 -25 -23 -28 -12 -4 -19 -15 -19 -31 0 -20 -5 -24 -29 -24 -25 0 -30
-4 -33 -27 -2 -22 -8 -28 -28 -28 -20 0 -26 6 -28 28 -2 19 -9 27 -23 27 -13
0 -19 7 -19 24 0 18 -6 25 -22 28 -17 2 -24 11 -26 31 -3 21 -9 27 -28 27 -21
0 -24 5 -24 35 l0 35 -85 0 -85 0 0 -430z"/>
<path d="M6225 5930 c3 -5 8 -10 11 -10 2 0 4 5 4 10 0 6 -5 10 -11 10 -5 0
-7 -4 -4 -10z"/>
<path d="M6088 5813 c-22 -6 -24 -23 -2 -23 8 0 22 -7 31 -15 19 -19 33 -11
33 21 0 24 -17 29 -62 17z"/>
<path d="M2346 5628 c-3 -101 -7 -232 -7 -291 -1 -90 -3 -106 -15 -96 -11 9
-14 8 -14 -5 0 -9 7 -16 15 -16 8 0 15 -7 15 -15 0 -9 -6 -12 -16 -8 -9 3 -20
0 -25 -8 -5 -10 -3 -16 9 -21 10 -4 0 -7 -28 -9 l-45 -2 45 -7 c25 -4 47 -3
48 1 2 5 28 9 58 9 41 0 54 4 54 15 0 8 5 15 10 15 6 0 13 -7 16 -15 4 -8 11
-15 17 -15 5 0 3 8 -5 18 -9 10 -14 30 -11 50 4 28 1 32 -19 32 -18 0 -20 -2
-8 -10 11 -7 11 -10 2 -10 -7 0 -11 -3 -9 -7 3 -5 1 -17 -4 -28 -4 -11 -8 121
-8 293 l-1 312 -34 0 -33 0 -7 -182z"/>
<path d="M4345 5776 c-16 -18 -37 -36 -45 -39 -12 -5 -11 -9 8 -25 12 -11 22
-25 22 -31 0 -6 4 -11 9 -11 24 0 36 -70 36 -211 -1 -125 -3 -152 -20 -187
-20 -41 -61 -63 -67 -36 -2 10 -7 10 -22 -2 -19 -13 -19 -15 -2 -27 16 -12 16
-15 -14 -44 l-31 -30 26 -17 c14 -9 25 -25 25 -36 0 -11 7 -20 15 -20 9 0 21
-11 27 -25 16 -35 25 -31 31 15 5 41 30 76 47 65 5 -3 7 0 4 8 -3 10 5 18 25
25 29 10 41 38 25 55 -4 3 -7 115 -9 249 -4 396 -1 358 -32 357 -18 0 -38 -12
-58 -33z"/>
<path d="M4800 5485 l0 -325 46 0 c38 0 45 3 40 16 -3 9 -6 155 -6 325 l0 309
-40 0 -40 0 0 -325z"/>
<path d="M3207 5674 c-4 -4 -7 -43 -7 -86 l0 -78 210 0 211 0 -3 83 -3 82
-201 3 c-110 1 -203 -1 -207 -4z"/>
<path d="M4297 5659 c4 -13 8 -18 11 -10 2 7 -1 18 -6 23 -8 8 -9 4 -5 -13z"/>
<path d="M1870 5499 c0 -11 4 -18 10 -14 5 3 7 12 3 20 -7 21 -13 19 -13 -6z"/>
<path d="M5526 5504 c-4 -10 -2 -22 3 -27 14 -14 43 0 39 20 -4 24 -34 28 -42
7z"/>
<path d="M6116 5496 c-16 -25 -16 -26 4 -26 23 0 38 26 23 41 -7 7 -16 1 -27
-15z"/>
<path d="M5441 5494 c0 -11 3 -14 6 -6 3 7 2 16 -1 19 -3 4 -6 -2 -5 -13z"/>
<path d="M1871 5433 c1 -34 2 -35 9 -13 11 36 11 50 0 50 -5 0 -10 -17 -9 -37z"/>
<path d="M2452 5400 c0 -19 2 -27 5 -17 2 9 2 25 0 35 -3 9 -5 1 -5 -18z"/>
<path d="M3188 5303 c-2 -60 -8 -116 -12 -125 -8 -17 4 -18 177 -18 113 0 188
-4 192 -10 3 -5 19 -10 35 -10 16 0 32 5 35 10 3 6 34 10 69 10 34 0 66 3 69
6 4 4 -14 25 -38 46 -25 22 -45 46 -45 53 0 7 -7 15 -15 19 -11 4 -15 21 -15
66 l0 60 -224 0 -224 0 -4 -107z"/>
<path d="M1875 5380 c4 -6 11 -8 16 -5 14 9 11 15 -7 15 -8 0 -12 -5 -9 -10z"/>
<path d="M1498 5323 c17 -2 47 -2 65 0 17 2 3 4 -33 4 -36 0 -50 -2 -32 -4z"/>
<path d="M2450 5299 c0 -16 4 -28 9 -25 8 5 3 56 -5 56 -2 0 -4 -14 -4 -31z"/>
<path d="M2793 5323 c21 -2 41 -11 44 -19 7 -20 20 -17 26 6 5 18 1 20 -51 18
-44 -1 -48 -2 -19 -5z"/>
<path d="M3653 5311 c-1 -13 3 -18 12 -15 8 3 11 12 8 20 -7 20 -18 17 -20 -5z"/>
<path d="M4452 5256 c2 -29 8 -51 16 -54 18 -6 16 60 -3 84 -14 18 -15 15 -13
-30z"/>
<path d="M2780 5225 l0 -65 31 0 c24 0 30 3 25 16 -3 9 -6 38 -6 65 0 46 -2
49 -25 49 -24 0 -25 -2 -25 -65z"/>
<path d="M2022 5260 c0 -14 2 -19 5 -12 2 6 2 18 0 25 -3 6 -5 1 -5 -13z"/>
<path d="M7680 5260 c0 -5 4 -10 9 -10 6 0 13 5 16 10 3 6 -1 10 -9 10 -9 0
-16 -4 -16 -10z"/>
<path d="M5240 5218 c0 -7 -3 -23 -6 -35 -6 -20 -3 -23 25 -23 33 0 44 23 16
34 -8 3 -15 12 -15 21 0 8 -4 15 -10 15 -5 0 -10 -6 -10 -12z"/>
<path d="M6560 5208 c0 -13 50 -61 57 -54 7 6 -29 54 -44 60 -7 3 -13 0 -13
-6z"/>
<path d="M4896 5202 c-3 -5 9 -17 26 -27 l31 -18 -19 26 c-20 28 -29 32 -38
19z"/>
<path d="M7678 5193 c7 -3 16 -2 19 1 4 3 -2 6 -13 5 -11 0 -14 -3 -6 -6z"/>
<path d="M2020 5174 c0 -8 5 -12 10 -9 6 3 10 10 10 16 0 5 -4 9 -10 9 -5 0
-10 -7 -10 -16z"/>
<path d="M6852 5178 c-21 -21 -13 -28 36 -27 37 0 42 2 26 9 -12 5 -25 13 -29
19 -8 14 -18 14 -33 -1z"/>
<path d="M2040 5160 c0 -5 5 -10 10 -10 6 0 10 5 10 10 0 6 -4 10 -10 10 -5 0
-10 -4 -10 -10z"/>
<path d="M718 5153 c34 -2 88 -2 120 0 31 2 3 3 -63 3 -66 0 -92 -1 -57 -3z"/>
<path d="M1428 5153 c7 -3 16 -2 19 1 4 3 -2 6 -13 5 -11 0 -14 -3 -6 -6z"/>
<path d="M2900 5151 c0 -8 79 -3 89 5 2 2 -17 4 -42 4 -26 0 -47 -4 -47 -9z"/>
<path d="M2350 5131 c0 -5 5 -13 10 -16 6 -3 10 -2 10 4 0 5 -4 13 -10 16 -5
3 -10 2 -10 -4z"/>
<path d="M2400 5119 c0 -5 23 -9 52 -9 28 0 49 2 47 4 -9 8 -99 13 -99 5z"/>
<path d="M4196 5111 c-4 -7 -5 -15 -2 -18 9 -9 19 4 14 18 -4 11 -6 11 -12 0z"/>
<path d="M4418 5113 c7 -3 16 -2 19 1 4 3 -2 6 -13 5 -11 0 -14 -3 -6 -6z"/>
<path d="M4848 5113 c12 -2 32 -2 45 0 12 2 2 4 -23 4 -25 0 -35 -2 -22 -4z"/>
<path d="M5298 5113 c18 -2 45 -2 60 0 15 2 0 4 -33 4 -33 0 -45 -2 -27 -4z"/>
<path d="M2915 5100 c3 -5 11 -10 16 -10 6 0 7 5 4 10 -3 6 -11 10 -16 10 -6
0 -7 -4 -4 -10z"/>
<path d="M2990 5090 c0 -11 5 -20 12 -20 7 0 22 -12 34 -27 26 -33 30 -31 39
25 l7 42 -46 0 c-39 0 -46 -3 -46 -20z"/>
<path d="M4220 5090 c0 -5 5 -10 11 -10 5 0 7 5 4 10 -3 6 -8 10 -11 10 -2 0
-4 -4 -4 -10z"/>
<path d="M2370 4520 l0 -530 110 0 110 0 0 195 0 195 25 0 c23 0 25 -4 25 -42
0 -73 8 -88 45 -88 31 0 33 -2 39 -45 7 -42 9 -45 37 -45 26 0 29 -3 29 -30 0
-27 3 -30 30 -30 23 0 30 -4 30 -20 0 -11 5 -20 10 -20 7 0 8 -13 4 -35 l-6
-35 96 0 96 0 0 99 0 100 -37 3 c-35 3 -38 6 -43 37 -4 31 -9 35 -40 39 -19 2
-39 7 -43 12 -5 4 -6 33 -2 64 6 44 11 56 25 56 10 0 20 7 24 15 3 8 15 15 26
15 16 0 20 7 20 30 0 28 3 30 35 30 l35 0 0 204 0 203 -40 7 c-36 6 -40 9 -40
36 0 28 -3 30 -35 30 -34 0 -35 1 -35 40 l0 40 -265 0 -265 0 0 -530z m456
306 c10 -11 14 -40 14 -106 0 -66 -4 -95 -14 -106 -11 -10 -43 -14 -125 -14
l-111 0 0 120 0 120 111 0 c82 0 114 -4 125 -14z"/>
<path d="M2690 4719 c0 -14 5 -19 17 -17 26 5 29 38 4 38 -15 0 -21 -6 -21
-21z"/>
<path d="M3172 4948 l3 -103 30 0 30 0 3 -322 2 -322 -32 -3 -33 -3 -3 -102
-3 -103 176 0 175 0 0 104 0 105 -32 3 -33 3 0 320 0 320 33 3 32 3 0 100 0
99 -175 0 -176 0 3 -102z"/>
<path d="M3648 4545 c-1 -278 -2 -515 -2 -527 l-1 -23 263 -3 262 -2 0 34 c0
35 13 46 51 46 15 0 19 7 19 34 0 33 2 35 38 38 l37 3 3 377 2 377 -37 3 c-35
3 -38 6 -41 35 -3 28 -7 32 -35 35 -29 3 -32 6 -35 41 l-3 37 -260 0 -259 0
-2 -505z m432 280 c0 -8 7 -15 15 -15 13 0 15 -38 15 -285 0 -245 -2 -286 -15
-291 -8 -4 -15 -13 -15 -20 0 -12 -20 -14 -112 -12 l-113 3 -3 255 c-2 140 0
283 3 318 l7 62 109 0 c90 0 109 -3 109 -15z"/>
<path d="M3966 4732 c-2 -4 -4 -103 -4 -220 0 -202 0 -212 19 -212 18 0 19 10
19 220 0 185 -2 220 -14 220 -8 0 -17 -4 -20 -8z"/>
<path d="M4044 4535 c0 -77 2 -107 3 -67 2 40 2 103 0 140 -2 37 -3 4 -3 -73z"/>
<path d="M3910 4335 c0 -27 3 -45 7 -42 7 8 6 77 -2 85 -3 3 -5 -16 -5 -43z"/>
<path d="M4442 4523 l3 -528 283 -3 282 -2 0 105 0 105 -177 2 -178 3 0 100 0
100 138 3 137 3 0 104 0 104 -137 3 -138 3 0 105 0 105 180 5 180 5 3 103 3
102 -291 0 -291 0 3 -527z"/>
<path d="M5146 5042 c-2 -4 -4 -243 -4 -530 l0 -522 104 0 104 0 0 98 c0 53 3
141 7 195 6 93 7 97 30 97 22 0 23 -3 23 -65 l0 -65 40 0 c38 0 40 -1 41 -32
1 -18 1 -39 0 -45 -1 -8 11 -13 34 -13 34 0 35 -1 35 -40 0 -39 1 -40 35 -40
35 0 35 0 35 -45 l0 -45 95 0 95 0 0 99 0 100 -37 3 c-35 3 -38 6 -43 37 -4
30 -9 34 -39 38 -43 4 -42 3 -48 52 -9 67 1 88 46 96 37 6 40 9 43 43 3 33 6
37 34 40 28 3 32 8 38 40 3 20 6 110 6 199 l0 162 -37 3 c-35 3 -38 6 -41 36
-3 28 -7 32 -32 32 -26 0 -29 4 -32 38 l-3 37 -262 3 c-144 1 -264 -1 -267 -6z
m450 -227 c14 -22 16 -41 10 -113 -3 -47 -10 -90 -15 -95 -4 -4 -59 -6 -122
-5 l-114 3 -3 118 -3 117 115 0 c113 0 116 -1 132 -25z"/>
<path d="M5460 4725 c0 -8 9 -15 20 -15 11 0 20 7 20 15 0 8 -9 15 -20 15 -11
0 -20 -7 -20 -15z"/>
<path d="M4968 4735 c-5 -5 59 -75 68 -75 2 0 4 18 4 40 0 39 -1 40 -33 40
-19 0 -36 -2 -39 -5z"/>
<path d="M4828 4683 c6 -2 18 -2 25 0 6 3 1 5 -13 5 -14 0 -19 -2 -12 -5z"/>
<path d="M3073 4375 c-14 -13 -23 -34 -23 -54 0 -19 -6 -34 -15 -37 -8 -4 -15
-12 -15 -20 0 -13 30 -18 80 -15 10 0 11 -1 3 -5 -7 -3 -13 -10 -13 -15 0 -15
27 -10 33 5 3 8 18 16 34 18 l28 3 -23 21 c-19 17 -30 20 -62 14 -22 -4 -40
-3 -40 1 0 5 16 9 35 9 l35 0 0 50 c0 41 -3 50 -17 49 -10 -1 -28 -11 -40 -24z"/>
<path d="M5002 4339 c-13 -16 -30 -29 -38 -29 -8 0 -14 -4 -14 -10 0 -5 20
-10 45 -10 36 0 45 3 45 18 0 9 3 27 6 40 9 32 -16 27 -44 -9z"/>
<path d="M5722 4345 c0 -16 2 -22 5 -12 2 9 2 23 0 30 -3 6 -5 -1 -5 -18z"/>
<path d="M2953 4323 c9 -2 25 -2 35 0 9 3 1 5 -18 5 -19 0 -27 -2 -17 -5z"/>
<path d="M4968 4253 c7 -3 16 -2 19 1 4 3 -2 6 -13 5 -11 0 -14 -3 -6 -6z"/>
<path d="M5860 4239 c0 -5 5 -7 10 -4 6 3 10 8 10 11 0 2 -4 4 -10 4 -5 0 -10
-5 -10 -11z"/>
<path d="M2295 4050 c-3 -5 -1 -10 4 -10 6 0 11 5 11 10 0 6 -2 10 -4 10 -3 0
-8 -4 -11 -10z"/>
<path d="M5870 4026 c0 -9 30 -14 35 -6 4 6 -3 10 -14 10 -12 0 -21 -2 -21 -4z"/>
<path d="M3314 3921 c18 -7 66 -3 66 5 0 2 -19 4 -42 3 -31 0 -37 -3 -24 -8z"/>
<path d="M5338 3923 c17 -3 22 -9 18 -21 -5 -15 -5 -15 6 -1 7 9 20 18 28 21
8 3 -5 5 -30 5 -25 0 -35 -2 -22 -4z"/>
<path d="M3778 3893 c6 -2 18 -2 25 0 6 3 1 5 -13 5 -14 0 -19 -2 -12 -5z"/>
<path d="M2570 3797 c0 -7 41 -50 91 -97 50 -47 107 -100 126 -117 18 -18 36
-33 39 -33 3 0 27 -21 54 -47 61 -60 120 -113 124 -113 6 0 64 -51 106 -92 21
-21 43 -38 49 -38 6 0 11 -7 11 -15 0 -8 7 -15 15 -15 9 0 18 -7 21 -15 4 -8
10 -15 15 -15 5 0 36 -27 70 -60 33 -33 65 -60 70 -60 5 0 9 -7 9 -15 0 -8 5
-15 11 -15 6 0 17 -6 24 -12 33 -30 45 -38 55 -38 5 0 10 -7 10 -15 0 -8 6
-15 13 -15 7 0 19 -9 27 -20 8 -11 18 -20 22 -20 9 0 76 -59 111 -97 11 -13
24 -23 29 -23 9 0 19 -7 68 -52 16 -16 34 -28 38 -28 5 0 18 -9 29 -19 18 -17
26 -18 57 -9 25 8 32 14 24 20 -9 5 -6 8 10 8 12 0 22 -4 22 -9 0 -5 9 -7 20
-4 13 3 20 0 20 -8 0 -11 2 -11 10 1 6 9 5 17 -3 22 -21 13 5 26 53 28 62 3
64 2 50 -15 -18 -21 -12 -24 59 -30 49 -4 62 -3 58 7 -2 7 -11 12 -20 10 -11
-2 -17 6 -19 25 -2 20 -9 29 -26 31 -14 2 -22 10 -21 20 4 44 -35 90 -47 57
-12 -30 -22 -14 -17 25 4 31 2 41 -11 46 -25 10 -21 76 7 100 17 15 37 19 95
19 39 0 72 -3 72 -7 0 -5 24 -8 54 -8 35 0 60 -5 70 -15 9 -9 33 -15 65 -15
27 0 53 -5 56 -10 4 -6 29 -9 57 -7 42 4 51 1 57 -15 7 -19 9 -19 23 -4 9 9
19 16 23 16 3 0 19 14 35 30 16 17 32 30 34 30 3 0 21 16 40 35 20 19 39 35
43 35 5 0 14 9 21 20 7 11 19 20 27 20 8 0 15 7 15 15 0 8 9 15 20 15 11 0 20
-7 20 -15 0 -8 -5 -15 -10 -15 -6 0 -25 -16 -43 -35 -17 -19 -38 -35 -44 -35
-7 0 -13 -4 -13 -10 0 -5 -4 -10 -9 -10 -5 0 -29 -18 -52 -40 -24 -22 -49 -40
-56 -40 -7 0 -13 -4 -13 -9 0 -5 -3 -16 -6 -25 -5 -13 1 -16 25 -16 18 0 31
-5 31 -12 1 -8 6 -5 15 6 14 18 41 14 29 -5 -8 -14 15 -39 37 -39 11 0 19 -7
19 -15 0 -24 -48 -18 -74 10 -17 18 -34 25 -60 25 -23 0 -39 5 -42 15 -4 8
-15 15 -25 15 -10 0 -19 5 -19 10 0 6 -18 10 -40 10 -29 0 -40 -4 -40 -15 0
-8 7 -15 15 -15 8 0 15 -7 15 -16 0 -12 6 -15 25 -10 20 5 25 3 25 -13 0 -15
8 -21 32 -23 46 -4 49 -28 4 -28 -25 0 -36 4 -36 15 0 9 -9 15 -25 15 -14 0
-28 7 -31 15 -4 8 -14 15 -23 15 -10 0 -23 14 -31 35 -13 34 -15 35 -68 35
-36 0 -59 5 -66 14 -8 11 -46 17 -133 22 l-123 7 0 -27 c0 -17 5 -26 16 -26
11 0 14 -6 9 -20 -5 -14 -2 -20 9 -20 9 0 16 -7 16 -15 0 -8 7 -15 15 -15 8 0
15 -9 15 -20 0 -11 7 -20 15 -20 9 0 19 -8 22 -17 8 -19 43 -57 43 -45 0 4 6
0 13 -8 16 -20 53 -40 72 -40 9 0 13 -4 10 -10 -3 -5 0 -10 7 -10 8 0 20 -6
26 -12 7 -7 16 -13 20 -14 58 -6 82 -18 82 -39 0 -13 -6 -26 -12 -29 -10 -5
-10 -7 0 -12 6 -3 12 -19 12 -35 0 -22 5 -29 20 -29 28 0 27 -40 -1 -47 -18
-5 -20 -11 -16 -54 3 -27 1 -51 -4 -55 -16 -9 -10 -22 14 -30 12 -4 24 -11 27
-15 4 -5 20 -12 38 -15 25 -5 32 -3 32 10 0 9 5 16 12 16 6 0 19 7 29 16 17
15 39 12 39 -6 0 -5 -13 -17 -29 -26 -54 -32 -47 -48 41 -88 43 -20 85 -36 92
-36 8 0 19 -7 26 -15 7 -8 21 -15 32 -15 10 0 32 -7 47 -15 16 -8 31 -11 35
-8 3 4 6 60 6 125 l0 118 -95 0 c-88 0 -95 2 -95 20 0 18 5 19 85 13 57 -4 89
-2 98 6 11 8 21 8 41 -2 14 -8 23 -16 20 -19 -3 -3 11 -9 31 -12 20 -4 39 -14
42 -22 3 -7 16 -14 30 -14 13 0 22 4 18 9 -3 5 -1 12 5 16 14 9 12 35 -3 35
-7 0 -25 6 -40 13 -21 9 -27 18 -25 37 4 31 22 33 26 3 4 -28 32 -31 32 -3 0
19 10 24 38 21 6 -1 12 5 12 14 0 9 9 15 23 15 23 0 47 17 47 33 0 4 -21 17
-46 28 -25 11 -48 27 -51 35 -3 8 -14 14 -24 14 -15 0 -19 7 -19 35 0 24 5 35
15 35 8 0 12 6 9 14 -3 7 2 20 10 29 9 9 16 32 16 51 0 30 4 36 21 36 18 0 20
-5 17 -42 -2 -33 -8 -45 -24 -52 -16 -7 -23 -22 -27 -50 -7 -51 -3 -56 39 -56
19 0 34 -4 34 -10 0 -5 9 -10 20 -10 11 0 20 -7 20 -15 0 -9 9 -15 25 -15 18
0 25 -5 25 -20 0 -15 7 -20 25 -20 18 0 25 -5 25 -20 0 -19 13 -25 53 -21 12
2 17 -5 17 -22 0 -19 7 -26 31 -31 41 -8 49 -2 49 40 l0 34 205 0 205 0 0
-162 c0 -190 9 -237 45 -240 66 -4 60 -67 57 597 -2 330 -5 602 -7 604 -3 2
-28 -6 -56 -18 -28 -11 -60 -21 -69 -21 -10 0 -20 -7 -24 -15 -3 -8 -17 -15
-31 -15 -14 0 -25 -4 -25 -9 0 -6 -20 -13 -45 -17 -28 -4 -45 -11 -45 -20 0
-8 -10 -14 -22 -14 -13 -1 -41 -9 -63 -20 -22 -11 -48 -19 -57 -20 -10 0 -18
-4 -18 -10 0 -5 -13 -10 -30 -10 -19 0 -30 -5 -30 -14 0 -14 -29 -26 -67 -26
-13 0 -23 -4 -23 -10 0 -5 -11 -10 -24 -10 -13 0 -26 -6 -29 -13 -2 -7 -32
-18 -65 -26 -33 -7 -63 -19 -66 -27 -7 -19 -56 -18 -56 1 0 8 5 16 10 16 19 3
25 4 35 11 6 3 27 9 48 13 20 4 37 11 37 16 0 5 11 9 24 9 13 0 26 7 30 15 3
8 14 15 25 15 10 0 21 7 25 15 3 8 16 15 30 15 13 0 37 7 52 15 16 8 37 15 46
15 9 0 20 5 23 10 3 6 17 10 30 10 12 0 25 7 29 15 3 9 19 15 41 15 23 0 35 5
35 14 0 8 16 16 41 20 23 4 48 13 56 21 8 9 18 13 23 10 4 -3 13 2 20 10 7 8
27 17 46 21 19 3 34 10 34 15 0 5 8 9 18 9 9 0 35 7 57 14 39 14 40 15 39 60
-1 25 -2 87 -3 136 -1 84 -3 91 -23 99 -13 5 -22 11 -20 15 6 16 1 26 -13 26
-8 0 -15 6 -15 14 0 7 -9 16 -20 19 -11 3 -20 12 -20 21 0 9 -8 16 -20 16 -11
0 -20 7 -20 15 0 12 -15 15 -75 15 -60 0 -75 -3 -75 -15 0 -8 -9 -15 -20 -15
-11 0 -20 -7 -20 -15 0 -8 -6 -15 -13 -15 -7 0 -19 -9 -27 -20 -8 -11 -20 -20
-27 -20 -7 0 -13 -7 -13 -15 0 -8 -6 -15 -14 -15 -8 0 -16 -7 -20 -15 -3 -8
-12 -15 -20 -15 -7 0 -16 -7 -20 -15 -3 -8 -12 -15 -20 -15 -7 0 -16 -7 -20
-15 -3 -8 -12 -15 -21 -15 -8 0 -15 -4 -15 -9 0 -5 -9 -13 -20 -16 -11 -3 -20
-13 -20 -21 0 -8 -6 -14 -14 -14 -8 0 -16 -7 -20 -15 -3 -8 -12 -15 -20 -15
-7 0 -16 -7 -20 -15 -3 -8 -12 -15 -20 -15 -7 0 -17 -7 -20 -16 -3 -8 -10 -12
-16 -9 -6 3 -13 -1 -16 -9 -3 -9 -12 -16 -20 -16 -8 0 -14 -7 -14 -15 0 -8 -7
-15 -15 -15 -8 0 -15 -4 -15 -10 0 -5 -9 -10 -20 -10 -11 0 -20 -7 -20 -15 0
-8 -7 -15 -15 -15 -9 0 -18 -7 -21 -15 -4 -8 -12 -15 -19 -15 -7 0 -15 -7 -19
-15 -3 -8 -12 -15 -20 -15 -7 0 -16 -7 -20 -15 -3 -8 -12 -15 -21 -15 -8 0
-15 -7 -15 -15 0 -8 -6 -15 -14 -15 -8 0 -17 -7 -20 -15 -4 -13 -10 -14 -26
-5 -24 13 -18 30 11 30 10 0 19 6 19 14 0 8 9 18 20 21 11 3 20 13 20 21 0 8
5 14 10 14 6 0 21 11 34 25 13 14 28 25 35 25 6 0 11 7 11 15 0 8 6 15 13 15
6 0 28 15 49 33 56 50 92 77 100 77 4 0 8 7 8 15 0 8 5 15 10 15 6 0 20 11 32
25 12 14 27 25 34 25 6 0 14 7 18 15 3 8 12 15 21 15 8 0 15 7 15 15 0 9 7 18
15 22 9 3 33 22 54 42 21 20 62 56 90 80 28 24 49 47 46 52 -3 4 -388 8 -855
8 l-850 1 0 -74 c0 -51 4 -76 13 -78 15 -6 17 -162 2 -165 -5 -2 -11 14 -11
35 -1 20 -2 52 -3 70 -1 21 -6 32 -16 32 -12 0 -15 17 -15 90 l0 90 -615 0
c-479 -1 -615 -3 -615 -13z m1370 -87 c0 -5 -4 -10 -10 -10 -5 0 -10 5 -10 10
0 6 5 10 10 10 6 0 10 -4 10 -10z m20 -95 c0 -16 -6 -25 -15 -25 -9 0 -15 9
-15 25 0 16 6 25 15 25 9 0 15 -9 15 -25z m-410 11 c0 -3 -4 -8 -10 -11 -5 -3
-10 -1 -10 4 0 6 5 11 10 11 6 0 10 -2 10 -4z m690 -16 c0 -11 -7 -20 -15 -20
-15 0 -21 21 -8 33 12 13 23 7 23 -13z m880 -55 c0 -8 -7 -15 -15 -15 -8 0
-15 7 -15 15 0 8 7 15 15 15 8 0 15 -7 15 -15z m-1473 -72 c-3 -10 -5 -2 -5
17 0 19 2 27 5 18 2 -10 2 -26 0 -35z m-557 27 c0 -5 -4 -10 -10 -10 -5 0 -10
5 -10 10 0 6 5 10 10 10 6 0 10 -4 10 -10z m800 -69 c0 -27 -3 -56 -6 -65 -12
-31 -24 -4 -24 55 0 46 3 59 15 59 11 0 15 -12 15 -49z m-213 17 c-3 -8 -6 -5
-6 6 -1 11 2 17 5 13 3 -3 4 -12 1 -19z m53 -23 c0 -25 -4 -45 -10 -45 -5 0
-10 20 -10 45 0 25 5 45 10 45 6 0 10 -20 10 -45z m130 -81 c0 -4 -8 -12 -17
-19 -12 -9 -17 -25 -16 -55 1 -23 3 -44 5 -45 3 -3 220 -8 276 -6 29 1 32 4
32 31 0 23 5 30 19 30 13 0 18 -6 16 -17 -2 -10 -6 -30 -10 -45 l-5 -28 -171
0 c-182 0 -176 -2 -181 55 -2 17 -7 33 -13 38 -6 4 -1 15 13 26 12 11 22 24
22 30 0 6 7 11 15 11 8 0 15 -3 15 -6z m400 -294 c0 -5 -2 -10 -4 -10 -3 0 -8
5 -11 10 -3 6 -1 10 4 10 6 0 11 -4 11 -10z m622 -5 c0 -5 -5 -11 -11 -13 -6
-2 -11 4 -11 13 0 9 5 15 11 13 6 -2 11 -8 11 -13z m193 -45 c3 -5 1 -10 -4
-10 -6 0 -11 5 -11 10 0 6 2 10 4 10 3 0 8 -4 11 -10z m43 -57 c4 -6 16 -12
27 -14 16 -3 21 -13 23 -47 3 -37 1 -42 -18 -42 -12 0 -18 5 -15 10 11 17 -5
50 -25 50 -10 0 -20 5 -22 12 -6 18 -69 14 -79 -5 -5 -9 -16 -14 -24 -11 -9 4
-15 0 -15 -10 0 -10 -9 -16 -25 -16 -14 0 -25 -4 -25 -10 0 -5 -11 -10 -25
-10 -16 0 -25 -6 -25 -16 0 -24 -84 -15 -88 10 -3 15 1 18 22 14 18 -4 26 -1
26 8 0 8 10 14 24 14 13 0 26 6 29 14 3 7 22 16 41 20 20 4 36 11 36 16 0 6 9
10 20 10 11 0 20 5 20 11 0 15 109 7 118 -8z m-858 -8 c0 -8 5 -15 10 -15 6 0
10 -9 10 -20 0 -11 -7 -20 -15 -20 -8 0 -15 9 -15 20 0 18 -7 20 -55 20 -51 0
-65 7 -48 23 3 4 30 7 60 7 40 0 53 -4 53 -15z m147 -20 c8 -23 1 -26 -50 -19
-30 4 -47 12 -47 20 0 21 89 19 97 -1z m-179 -32 c-5 -25 -28 -28 -28 -4 0 12
6 21 16 21 9 0 14 -7 12 -17z m152 -38 c0 -21 -12 -24 -58 -18 -30 4 -42 10
-42 22 0 13 9 15 50 13 33 -3 50 -8 50 -17z m-124 -11 c-3 -9 -6 -22 -6 -30 0
-8 -7 -14 -15 -14 -15 0 -21 40 -8 53 13 14 35 7 29 -9z m-493 -11 c-13 -2
-33 -2 -45 0 -13 2 -3 4 22 4 25 0 35 -2 23 -4z m187 -13 c0 -5 -7 -10 -16
-10 -8 0 -12 5 -9 10 3 6 10 10 16 10 5 0 9 -4 9 -10z m728 -2 c-7 -20 -48
-23 -48 -4 0 11 9 16 26 16 16 0 24 -5 22 -12z m-805 -25 c-7 -2 -19 -2 -25 0
-7 3 -2 5 12 5 14 0 19 -2 13 -5z m50 0 c-7 -2 -19 -2 -25 0 -7 3 -2 5 12 5
14 0 19 -2 13 -5z m37 -3 c0 -5 -4 -10 -10 -10 -5 0 -10 5 -10 10 0 6 5 10 10
10 6 0 10 -4 10 -10z m790 -5 c0 -9 9 -15 25 -15 28 0 34 -17 9 -27 -10 -4
-22 1 -29 10 -7 10 -24 17 -39 17 -16 0 -26 5 -26 15 0 10 10 15 30 15 20 0
30 -5 30 -15z m460 -120 c0 -8 -9 -15 -20 -15 -11 0 -20 7 -20 15 0 8 9 15 20
15 11 0 20 -7 20 -15z m-722 -42 c2 -8 -5 -13 -17 -13 -21 0 -35 13 -24 24 10
10 36 3 41 -11z m62 -33 c0 -13 7 -20 20 -20 11 0 20 7 20 15 0 8 9 15 20 15
11 0 20 -7 20 -15 0 -8 -9 -15 -20 -15 -13 0 -20 -7 -20 -20 0 -13 -7 -20 -20
-20 -13 0 -20 7 -20 20 0 11 -6 20 -14 20 -18 0 -29 16 -21 30 11 18 35 11 35
-10z m540 -25 c0 -8 -7 -15 -15 -15 -8 0 -15 -7 -15 -15 0 -22 -37 -18 -43 5
-4 15 0 20 13 20 11 0 22 5 25 10 10 15 35 12 35 -5z m-400 -9 c0 -7 -9 -16
-20 -19 -15 -4 -20 0 -20 14 0 12 7 19 20 19 11 0 20 -6 20 -14z m44 -12 c20
-8 21 -44 1 -44 -16 0 -38 34 -28 44 8 7 8 7 27 0z m96 -65 c0 -17 -4 -20 -22
-15 -13 3 -29 6 -35 6 -7 0 -13 7 -13 15 0 10 11 15 35 15 29 0 35 -4 35 -21z
m-145 -78 c0 -17 -42 -34 -51 -20 -3 5 -3 17 0 25 7 19 51 15 51 -5z"/>
<path d="M4006 2709 c-22 -21 -18 -33 8 -23 9 3 16 15 16 25 0 23 0 23 -24 -2z"/>
<path d="M4110 2684 c0 -9 14 -12 51 -9 51 4 80 14 43 16 -10 0 -36 1 -56 3
-26 2 -38 -1 -38 -10z"/>
<path d="M3900 2676 c0 -9 7 -12 20 -9 11 3 17 9 14 14 -8 14 -34 10 -34 -5z"/>
<path d="M4050 2680 c0 -5 5 -10 11 -10 5 0 7 5 4 10 -3 6 -8 10 -11 10 -2 0
-4 -4 -4 -10z"/>
<path d="M4265 2680 c-3 -5 -3 -10 2 -10 4 0 0 -5 -11 -11 -14 -9 -15 -13 -5
-19 9 -6 10 -12 2 -22 -5 -7 -13 -23 -16 -35 -4 -19 -1 -23 21 -24 15 0 21 -3
15 -6 -18 -7 -16 -20 3 -20 9 0 20 11 25 24 9 25 39 32 39 9 0 -7 9 -16 20
-19 21 -5 29 16 9 28 -6 5 -4 12 8 20 17 13 17 14 -2 32 -11 11 -35 26 -52 33
-18 8 -33 18 -33 22 0 11 -18 10 -25 -2z m65 -79 c0 -5 -7 -11 -15 -15 -15 -5
-20 5 -8 17 9 10 23 9 23 -2z"/>
<path d="M3787 2663 c-12 -11 -8 -23 8 -23 8 0 15 -9 15 -20 0 -11 5 -20 10
-20 6 0 10 9 10 20 0 11 -5 20 -11 20 -6 0 -9 7 -5 15 5 15 -14 21 -27 8z"/>
<path d="M3788 2573 c7 -3 16 -2 19 1 4 3 -2 6 -13 5 -11 0 -14 -3 -6 -6z"/>
<path d="M3780 2546 c0 -2 7 -7 16 -10 8 -3 12 -2 9 4 -6 10 -25 14 -25 6z"/>
<path d="M5450 2471 c0 -54 8 -71 35 -71 14 0 25 -7 28 -20 4 -15 14 -20 36
-20 24 0 31 -4 31 -20 0 -16 7 -20 30 -20 28 0 36 -11 31 -42 0 -5 14 -8 33
-8 28 0 35 -4 38 -22 2 -19 10 -24 43 -26 22 -2 43 -9 47 -15 4 -7 8 59 8 146
l0 157 -180 0 -180 0 0 -39z"/>
<path d="M4230 2365 c0 -8 5 -15 10 -15 6 0 10 7 10 15 0 8 -4 15 -10 15 -5 0
-10 -7 -10 -15z"/>
<path d="M4170 2300 c0 -5 5 -10 10 -10 6 0 10 5 10 10 0 6 -4 10 -10 10 -5 0
-10 -4 -10 -10z"/>
<path d="M3810 2270 c-13 -8 -12 -10 3 -10 9 0 17 5 17 10 0 12 -1 12 -20 0z"/>
<path d="M3911 2254 c0 -11 3 -14 6 -6 3 7 2 16 -1 19 -3 4 -6 -2 -5 -13z"/>
<path d="M4085 2240 c-8 -13 15 -13 35 0 12 8 11 10 -7 10 -12 0 -25 -4 -28
-10z"/>
<path d="M3877 2223 c6 -15 39 -18 47 -4 3 5 -7 11 -23 13 -21 3 -28 1 -24 -9z"/>
<path d="M5456 2161 c-17 -27 26 -58 64 -46 14 5 20 2 20 -9 0 -11 10 -16 33
-16 18 0 37 -4 43 -9 5 -5 24 -12 42 -16 25 -5 32 -3 32 9 0 11 -10 16 -33 16
-20 0 -39 8 -50 20 -13 15 -29 20 -66 20 -41 0 -51 4 -56 20 -7 21 -20 26 -29
11z"/>
<path d="M5720 2050 c0 -5 13 -10 29 -10 17 0 33 5 36 10 4 6 -8 10 -29 10
-20 0 -36 -4 -36 -10z"/>
<path d="M4480 1610 c0 -5 5 -10 10 -10 6 0 10 5 10 10 0 6 -4 10 -10 10 -5 0
-10 -4 -10 -10z"/>
<path d="M835 540 c3 -5 22 -10 41 -10 19 0 34 5 34 10 0 6 -18 10 -41 10 -24
0 -38 -4 -34 -10z"/>
<path d="M1010 540 c0 -5 14 -10 30 -10 17 0 30 5 30 10 0 6 -13 10 -30 10
-16 0 -30 -4 -30 -10z"/>
<path d="M1007 484 c-12 -12 4 -24 34 -24 19 0 29 5 29 15 0 15 -50 22 -63 9z"/>
</g>
</svg>
